<?xml version="1.0" encoding="UTF-8" standalone="no"?>
<svg width="131px" height="83px" viewBox="0 0 131 83" version="1.1" xmlns="http://www.w3.org/2000/svg" xmlns:xlink="http://www.w3.org/1999/xlink">
    <!-- Generator: Sketch 43.2 (39069) - http://www.bohemiancoding.com/sketch -->
    <title>Page 1</title>
    <desc>Created with Sketch.</desc>
    <defs></defs>
    <g id="park-city-2018" stroke="none" stroke-width="1" fill="none" fill-rule="evenodd">
        <g id="venue" transform="translate(-1284.000000, -1390.000000)" fill="#000000">
            <g id="Page-1" transform="translate(1284.000000, 1390.000000)">
                <path d="M0.389045283,20.3441268 C5.09392264,21.8680068 9.55574969,23.3105145 14.0159289,24.757954 C38.1574164,32.5931137 62.296844,40.4364928 86.441627,48.2617892 C96.3370704,51.4685949 106.681127,47.3136794 111.641825,38.1794408 C111.736574,38.0043672 111.844916,37.8362801 112.001869,37.5736697 C115.43135,39.9449716 118.630964,42.4954569 121.376196,45.5789713 C124.415149,48.9920844 126.729482,52.793976 128.17625,57.1782133 C130.573797,64.4445893 124.640486,70.6440849 117.84414,70.1751672 C113.719287,69.8903643 109.803294,68.8386899 105.925611,67.5831739 C75.749061,57.8131633 45.5856931,48.0036995 15.4116145,38.2275243 C7.85192579,35.7781379 2.83767421,30.9311475 0.871026415,23.1473591 C0.656400629,22.2974713 0.569479245,21.4155278 0.389045283,20.3441268" id="Fill-1"></path>
                <g id="Group-5" transform="translate(0.000000, 39.430190)">
                    <path d="M4.11949686e-05,4.90715662 C0.524865094,3.28793138 1.02785566,1.7369273 1.5646261,0.0803037087 C2.49027704,0.367161379 3.36196258,0.627716913 4.22746887,0.907588078 C41.4112833,12.9321849 78.5988053,24.9444525 115.771085,37.0056257 C119.871632,38.3363494 124.177331,36.9435691 126.079714,32.3871351 C127.637708,32.9029035 129.20806,33.4227817 130.872749,33.9734826 C130.244937,35.9029909 129.282623,37.538655 127.891469,38.8837626 C124.100708,42.5483899 119.604689,43.6222568 114.613919,42.0174156 C91.5616261,34.60309 68.5303431,27.125064 45.491233,19.6688194 C30.762384,14.9019683 16.0339469,10.1342952 1.30550975,5.36497817 C0.887792767,5.22935779 0.476255031,5.07442177 4.11949686e-05,4.90715662" id="Fill-3"></path>
                </g>
                <path d="M82.7313198,34.7870817 C82.7552129,29.4128156 87.1222915,25.1304991 92.5567318,25.1535134 C97.8494613,25.1752949 102.160927,29.589533 102.122203,34.9469493 C102.083892,40.3010779 97.638955,44.6117514 92.24365,44.5283243 C86.9612192,44.4465411 82.7078387,40.0906608 82.7313198,34.7870817" id="Fill-6"></path>
                <path d="M31.0115311,18.0229633 C31.037072,12.6100659 35.3505972,8.3770659 40.8179934,8.3996693 C46.1362638,8.42186173 50.4485531,12.8052771 50.4102418,18.1507752 C50.3719305,23.5024379 45.9912575,27.7563975 40.5341601,27.7416025 C35.2974557,27.7272185 30.9864022,23.3273643 31.0115311,18.0229633" id="Fill-8"></path>
                <path d="M24.5325513,9.73713291 C24.4789978,15.1520851 20.1518783,19.373167 14.6918972,19.3365906 C9.40122736,19.3016581 5.04980283,14.8541313 5.11818648,9.55178505 C5.18739403,4.19395777 9.6039066,-0.0600017476 15.0342274,0.000821941748 C20.2989443,0.0595907767 24.5848689,4.45328039 24.5325513,9.73713291" id="Fill-10"></path>
                <path d="M76.2761094,26.5552529 C76.1665308,32.0014389 71.6841063,36.2989613 66.2776786,36.1399156 C61.0203767,35.9853906 56.720034,31.5000544 56.8399113,26.2959303 C56.9647321,20.9035814 61.3833044,16.6837325 66.7942635,16.789352 C72.0738107,16.8925057 76.3807447,21.3285253 76.2761094,26.5552529" id="Fill-12"></path>
            </g>
        </g>
    </g>
</svg>