<svg width="221" height="30" viewBox="0 0 221 30" xmlns="http://www.w3.org/2000/svg"><title>Logo</title><g fill="#FFF" fill-rule="evenodd"><path d="M77.328.787v28.54h11.61v-9.075h5.542v-3.995h-9.525v9.075H81.31V4.782H96.7v3.71H86.157v3.995h14.52V.787H77.33zm99.954 0v8.556L170.688.787h-8.924v28.54h11.61v-8.86h-3.983v4.865h-3.645V4.782h2.99l12.528 16.254V4.782h4.126v20.55h-4.2v3.995h8.18V.787h-12.088zm16.53 0v12.705h7.667v15.835h8.356v-3.995h-4.376V9.497h-7.666V4.782h19.024v4.715h-6.982v3.995H220.8V.787h-26.987zm-88.69 0v28.54h11.61v-9.762h-3.983v5.767h-3.647V4.782h15.482V14.4l-4.347 4.653 4.854 9.92h4.435l-4.504-9.202 3.543-3.79V.786h-23.444zm27.888 0v28.54h9.758v-3.995h-5.776V4.782h5.776V.787h-9.758zm14.554 0v3.995h5.776v20.55h-5.776v3.995h9.758V.787h-9.758zM29.12.107L0 29.327h18.074L29.12 18.244V.107zm36.408 0L47.194 18.505v10.822h18.334V.107zm-18.334 0L29.12 18.244v11.083h7.29l10.784-10.822V.107z"/><path d="M17.887 29.4h11.305V18.058L17.887 29.4zm18.764 0h11.04V18.325L36.65 29.4z" opacity=".6"/></g></svg>