<?xml version="1.0" encoding="UTF-8" standalone="no"?>
<svg width="107px" height="88px" viewBox="0 0 107 88" version="1.1" xmlns="http://www.w3.org/2000/svg" xmlns:xlink="http://www.w3.org/1999/xlink">
    <!-- Generator: Sketch 43.2 (39069) - http://www.bohemiancoding.com/sketch -->
    <title>Page 1</title>
    <desc>Created with Sketch.</desc>
    <defs>
        <polygon id="path-1" points="1.04924821e-15 27.8659158 1.04924821e-15 0.306299895 27.4891508 0.306299895 27.4891508 27.8659158 0 27.8659158"></polygon>
    </defs>
    <g id="park-city-2018" stroke="none" stroke-width="1" fill="none" fill-rule="evenodd">
        <g id="venue" transform="translate(-734.000000, -1372.000000)">
            <g id="Page-1" transform="translate(734.000000, 1372.000000)">
                <g id="Group-3" transform="translate(2.340625, 23.205466)" fill="#000000">
                    <path d="M87.4989825,44.8369069 C87.1208044,41.3662809 85.3145106,38.7652427 81.3514981,35.9573038 C82.0346263,34.6362962 82.7231044,33.3048763 83.4908294,31.8202962 C84.4852606,32.5051511 85.5027638,33.0784947 86.37147,33.8268305 C90.2445356,37.1624336 92.2370763,41.4159908 92.27787,46.5512275 C92.2828856,47.1776397 92.47582,47.473884 93.0211856,47.7449374 C95.7894763,49.1200214 98.5661263,50.4836855 101.279245,51.9632275 C103.718176,53.2929679 104.900861,55.4583725 104.568158,58.2323878 C104.217064,61.1615786 102.625773,63.2611511 99.7722169,64.2053038 C98.0749294,64.7672275 96.4140888,64.4457924 94.8395169,63.6571511 C92.1755513,62.3233802 89.5129231,60.9855786 86.8603263,59.6293038 C86.4396825,59.4140061 86.1534575,59.4237466 85.742845,59.7119298 C80.0407481,63.7159298 74.0340356,64.2170595 67.8758513,60.9529985 C45.5546481,49.1227084 23.2642075,37.2333038 0.9627325,25.3657313 C0.71797,25.2357466 0.47722,25.0987084 0.136491875,24.9109527 C0.84837625,23.5519908 1.5512325,22.2101588 2.28552,20.8088763 C2.60685438,20.9744641 2.87335125,21.1084794 3.13650438,21.2485405 C25.5637044,33.1762351 47.9862231,45.1129985 70.4227856,57.0235634 C73.9053013,58.872571 77.477095,58.7869221 81.0415325,57.1868 C81.1886575,57.1202962 81.3197325,57.0185252 81.5337325,56.8868611 C81.2144044,56.7071664 80.9646263,56.5577008 80.7071575,56.4226779 C59.656245,45.3501282 38.603995,34.2809374 17.5550888,23.2053649 C15.1686544,21.9495176 13.17277,20.2466168 11.7359606,17.9253649 C10.3248981,15.6450901 9.96577938,13.2103115 10.5696606,10.5971817 C10.7799825,9.68762443 11.1511388,9.26744122 12.1736575,9.26374656 C15.3960294,9.25199084 18.359595,8.2588 21.0884294,6.56060153 C23.4457731,5.09348702 25.3594013,3.16487634 26.8747888,0.834891603 C26.9934919,0.652174046 27.1242325,0.477517557 27.27002,0.269945038 C27.5398606,0.434189313 27.7772669,0.570891603 28.0069825,0.720021374 C39.9769388,8.49425038 51.9405419,16.2782198 63.920195,24.0376702 C66.3273606,25.5968153 67.5331169,27.7222504 67.1602888,30.6034107 C67.055295,31.4122046 66.6854763,32.2011817 66.3507669,32.9609374 C66.060195,33.6209374 66.1223888,34.0750443 66.7891325,34.4132733 C73.5943325,37.8640824 80.3971919,41.3195939 87.2020575,44.7714107 C87.2712731,44.8066779 87.358545,44.8070137 87.4989825,44.8369069" id="Fill-1"></path>
                </g>
                <g id="Group-6" transform="translate(0.000000, 0.029893)">
                    <mask id="mask-2" fill="white">
                        <use xlink:href="#path-1"></use>
                    </mask>
                    <g id="Clip-5"></g>
                    <path d="M27.4891025,14.0219267 C27.509165,21.6208275 21.2730713,27.8963695 13.7325806,27.8658046 C6.21649938,27.8352397 0.041930625,21.6755756 0.00013375,14.1666901 C-0.0419975,6.54159084 6.10849625,0.327514504 13.7182025,0.306354198 C21.2784213,0.285193893 27.4693744,6.45090382 27.4891025,14.0219267" id="Fill-4" fill="#000000" mask="url(#mask-2)"></path>
                </g>
            </g>
        </g>
    </g>
</svg>