<?xml version="1.0" encoding="UTF-8" standalone="no"?>
<svg width="109px" height="102px" viewBox="0 0 109 102" version="1.1" xmlns="http://www.w3.org/2000/svg" xmlns:xlink="http://www.w3.org/1999/xlink">
    <!-- Generator: Sketch 43.2 (39069) - http://www.bohemiancoding.com/sketch -->
    <title>Page 1</title>
    <desc>Created with Sketch.</desc>
    <defs>
        <polygon id="path-1" points="0.0159042452 0.182543697 16.5809628 0.182543697 16.5809628 16.733286 0.0159042452 16.733286 0.0159042452 0.182543697"></polygon>
        <polygon id="path-3" points="0 101.897813 108.070267 101.897813 108.070267 0.300236345 0 0.300236345"></polygon>
    </defs>
    <g id="park-city-2018" stroke="none" stroke-width="1" fill="none" fill-rule="evenodd">
        <g id="venue" transform="translate(-226.000000, -1370.000000)">
            <g id="Page-1" transform="translate(226.000000, 1370.000000)">
                <path d="M51.1596442,52.2270729 C48.0425444,55.6987057 44.9683749,59.1229012 41.8939052,62.5467965 C41.5429575,62.9377042 41.1628893,63.3060942 40.844965,63.7222218 C39.3877366,65.6281221 37.3453953,66.4162425 35.0748929,66.4378595 C27.0955618,66.5150203 19.1150298,66.5099163 11.1353984,66.4876988 C8.79194462,66.4810936 6.86488466,64.9760088 6.17349674,62.816709 C5.46349568,60.5982626 6.18910775,58.3149652 8.08434525,56.8768332 C9.17141242,56.0517837 10.4443107,55.8467223 11.7685453,55.8518263 C17.7973999,55.8767459 23.8259544,55.8965615 29.8545088,55.9394953 C30.3774779,55.9433984 30.7212205,55.7920792 31.0649631,55.3927649 C40.1088455,44.8931997 49.1665376,34.4050435 58.2206272,23.9138849 C58.4259722,23.6757975 58.6181078,23.4260008 58.8882984,23.093339 C58.6136046,23.0738236 58.4505895,23.0534075 58.2875745,23.0522066 C56.2362268,23.0350931 54.1848792,23.0017669 52.1341319,23.0251853 C51.8138058,23.0290884 51.4007143,23.2101309 51.1911664,23.4497195 C47.0272279,28.215371 42.8804014,32.9960343 38.7455834,37.7872059 C37.1379489,39.6501724 34.4063211,39.9194844 32.6704961,38.3444446 C30.856616,36.6982487 30.8512122,34.1519442 32.5239927,32.2511479 C37.1838813,26.9558795 41.8020404,21.6236821 46.4220008,16.2929858 C47.3454525,15.2277472 48.4526338,14.6296764 49.8750376,14.6296764 C56.504316,14.6299766 63.1335944,14.6284755 69.7628728,14.6200688 C71.4320508,14.6179672 72.8019175,15.2493642 73.9748453,16.4283923 C77.9271344,20.4011197 81.9007387,24.3519297 85.861734,28.3162504 C86.0547703,28.5096026 86.2015739,28.7500919 86.4039167,29.013099 C86.7059298,28.7317775 86.9037694,28.5582409 87.0899008,28.3723946 C90.3312883,25.1397499 93.5705743,21.904403 96.8128624,18.6723588 C98.5237698,16.9676168 101.270108,16.9174774 102.882246,18.5561673 C104.654697,20.3575854 104.658299,22.9357149 102.879844,24.7287263 C98.6867849,28.9557538 94.4916243,33.1806797 90.2919605,37.4014022 C87.9767266,39.7282339 85.2796232,39.7276334 82.9760976,37.4347284 C80.5116584,34.9820977 78.0331092,32.5441786 75.4888137,30.0284983 C71.442258,34.7034784 67.3614781,39.417189 63.1735226,44.2554977 C63.5965211,44.6190839 63.9979044,44.9220224 64.3506533,45.2732989 C67.5599181,48.4678136 70.7292548,51.7031605 73.9763463,54.8583442 C75.8268522,56.6561594 76.2819734,58.7944427 75.7508986,61.1795202 C73.7866124,70.005568 71.7730914,78.8205071 69.7781836,87.6393493 C69.5575279,88.6136162 69.3758997,89.5986916 69.1090114,90.5600484 C68.3506762,93.2912984 65.4031961,94.9203808 62.5866084,94.196511 C59.7823294,93.476244 58.1197561,90.6300035 58.7754188,87.7225147 C60.4683135,80.2172066 62.1522018,72.7097968 63.8162762,65.1978834 C63.8775194,64.9201648 63.7958618,64.4827205 63.6067283,64.2971744 C59.5718808,60.3367568 55.512416,56.4012588 51.4568539,52.4624582 C51.3872048,52.394905 51.3040461,52.3408625 51.1596442,52.2270729 Z" id="Fill-1" fill="#000000"></path>
                <g id="Group-5" transform="translate(17.112076, 93.491196)" fill="#000000">
                    <path d="M0.123206949,8.40505642 L0.123206949,5.04901456 L1.25260398,5.04901456 C28.089143,5.04901456 54.9253817,5.0502155 81.7616205,5.04331007 C82.4088773,5.04300983 83.0717451,5.02739754 83.7000885,4.89199095 C85.701601,4.45965061 87.2639036,2.719781 87.5626144,0.681476455 C87.5911345,0.48722354 87.6331642,0.295072279 87.6712911,0.0897106197 L90.9574101,0.0897106197 C90.9769239,1.54885925 90.6316803,2.86959893 89.9378906,4.07234573 C88.3227508,6.8741513 85.8814279,8.39364744 82.6328353,8.39544886 C55.3964142,8.41226209 28.1596928,8.40505642 0.923271568,8.40505642 L0.123206949,8.40505642 Z" id="Fill-3"></path>
                </g>
                <path d="M104.683847,27.9717292 C105.775117,28.4319915 106.800341,28.8640316 107.875099,29.3170883 C107.72019,29.6512513 107.602807,29.922665 107.471014,30.1871732 C97.0623685,51.1265566 86.651021,72.0644388 76.2546842,93.0098269 C75.9859946,93.5505525 75.6923874,93.7979473 75.0673463,93.7547132 C74.2060384,93.6955667 73.3378257,93.7400017 72.3300145,93.7400017 C83.1502505,71.7443868 93.9065414,49.8799753 104.683847,27.9717292" id="Fill-6" fill="#000000"></path>
                <g id="Group-10" transform="translate(71.750636, 0.117693)">
                    <mask id="mask-2" fill="white">
                        <use xlink:href="#path-1"></use>
                    </mask>
                    <g id="Clip-9"></g>
                    <path d="M8.323464,16.7332523 C3.77765595,16.7461625 0.0379167585,13.0472507 0.0160012924,8.51638405 C-0.00591417373,3.94078216 3.68669176,0.220853855 8.28863943,0.182723839 C12.8173354,0.145494533 16.551971,3.84951032 16.5807913,8.40709803 C16.6099119,13.0061184 12.9266125,16.7203422 8.323464,16.7332523" id="Fill-8" fill="#000000" mask="url(#mask-2)"></path>
                </g>
                <path d="M31.2691371,87.984531 C32.0532905,88.8215899 32.8344418,89.655046 33.6645276,90.5407432 C32.0133624,91.6092844 30.3558926,92.398906 28.3907058,92.3103362 C27.3666831,92.2640998 26.493667,91.8746933 25.7800634,91.1595303 C17.3720297,82.7318961 8.97300239,74.2955551 0.557163199,65.8760273 C0.149475487,65.4683063 -0.0150406144,65.0662899 0.00117082627,64.5006446 C0.0368960381,63.2345479 0.0122786653,61.9672503 0.0122786653,60.5543381 C0.305585657,60.8227494 0.504626123,60.9917824 0.688655996,61.1758273 C9.54010261,70.0439082 18.4017564,78.9020813 27.2237823,87.7995854 C28.1712509,88.7546372 29.1133157,88.8921454 30.2646282,88.4282803 C30.5654405,88.3069848 30.8584473,88.1667744 31.2691371,87.984531" id="Fill-11" fill="#000000"></path>
                <mask id="mask-4" fill="white">
                    <use xlink:href="#path-3"></use>
                </mask>
                <g id="Clip-14"></g>
                <polygon id="Fill-13" fill="#000000" mask="url(#mask-4)" points="0.308617797 39.3210533 28.389535 39.3210533 28.389535 36.0412715 0.308617797 36.0412715"></polygon>
            </g>
        </g>
    </g>
</svg>