<?xml version="1.0" encoding="UTF-8" standalone="no"?>
<svg width="139px" height="84px" viewBox="0 0 139 84" version="1.1" xmlns="http://www.w3.org/2000/svg" xmlns:xlink="http://www.w3.org/1999/xlink">
    <!-- Generator: Sketch 43.2 (39069) - http://www.bohemiancoding.com/sketch -->
    <title>Combined Shape</title>
    <desc>Created with Sketch.</desc>
    <defs></defs>
    <g id="park-city-2018" stroke="none" stroke-width="1" fill="none" fill-rule="evenodd">
        <g id="venue" transform="translate(-994.000000, -1385.000000)" fill="#000000">
            <path d="M1098.64381,1424.62129 C1095.30342,1431.85517 1095.71649,1438.77804 1099.92274,1445.48979 C1098.09202,1448.0712 1095.63536,1449.60705 1092.48646,1449.88927 C1089.21586,1450.18195 1086.11189,1449.48142 1083.26309,1447.86008 C1054.89768,1431.71689 1026.54361,1415.5532 998.181257,1399.40478 C995.337693,1397.78606 993.656593,1395.46287 994.059202,1392.11856 C994.466173,1388.73716 996.343562,1386.33852 999.657345,1385.2947 C1001.79253,1384.62252 1003.80077,1385.16297 1005.69866,1386.28094 C1017.74292,1393.3748 1029.79502,1400.45601 1041.84494,1407.54071 C1043.35505,1408.42881 1043.44666,1408.40482 1044.35045,1406.90081 C1046.21868,1403.79073 1050.21948,1402.66011 1053.72606,1404.24961 C1061.72415,1407.8744 1069.72312,1411.49745 1077.72122,1415.12268 C1084.3309,1418.11847 1090.93971,1421.11689 1097.54852,1424.11486 C1097.87697,1424.26361 1098.20325,1424.41715 1098.64381,1424.62129 Z M1116.9781,1449.33709 C1108.3907,1449.24679 1101.50883,1442.28685 1101.62791,1433.81111 C1101.74612,1425.36068 1108.66812,1418.48841 1117.0287,1418.51982 C1125.6776,1418.5521 1132.58258,1425.54825 1132.48531,1434.1797 C1132.39022,1442.57735 1125.38404,1449.4252 1116.9781,1449.33709 Z M1102.30886,1457.64868 C1103.96117,1458.63797 1105.63529,1459.63904 1107.40189,1460.69638 C1105.68807,1463.57309 1103.34832,1465.6664 1100.3089,1466.89735 C1095.52513,1468.83449 1090.87354,1468.46111 1086.40907,1465.84655 C1063.82195,1452.61977 1041.23309,1439.39517 1018.64554,1426.1697 C1018.24467,1425.93502 1017.85035,1425.69032 1017.39496,1425.41595 C1018.43093,1423.64587 1019.41673,1421.96084 1020.44048,1420.21169 C1020.80296,1420.40449 1021.11877,1420.5589 1021.42193,1420.736 C1044.05092,1433.96234 1066.67991,1447.18912 1089.30716,1460.41939 C1094.03291,1463.1827 1098.82932,1462.21914 1102.08335,1457.84147 C1102.12522,1457.78521 1102.19152,1457.74769 1102.30886,1457.64868 Z" id="Combined-Shape"></path>
        </g>
    </g>
</svg>