<?xml version="1.0" encoding="UTF-8" standalone="no"?>
<svg width="96px" height="100px" viewBox="0 0 96 100" version="1.1" xmlns="http://www.w3.org/2000/svg" xmlns:xlink="http://www.w3.org/1999/xlink">
    <!-- Generator: Sketch 43.2 (39069) - http://www.bohemiancoding.com/sketch -->
    <title>Page 1</title>
    <desc>Created with Sketch.</desc>
    <defs>
        <polygon id="path-1" points="7.16782564e-15 51.1856845 7.16782564e-15 0.290587515 86.3273738 0.290587515 86.3273738 51.1856845 0 51.1856845"></polygon>
    </defs>
    <g id="park-city-2018" stroke="none" stroke-width="1" fill="none" fill-rule="evenodd">
        <g id="venue" transform="translate(-487.000000, -1369.000000)">
            <g id="Page-1" transform="translate(487.000000, 1369.000000)">
                <path d="M69.6283974,24.2308642 C69.5008103,26.9722222 67.9784361,29.3151235 65.3796232,31.0132716 C55.9806039,37.1555556 46.5729135,43.2848765 37.1831845,49.4410494 C36.7592361,49.7191358 36.3746168,50.1598765 36.1451458,50.6123457 C30.6180232,61.492284 25.1293006,72.3916667 19.5792619,83.2598765 C19.1293006,84.1410494 18.4037265,84.9777778 17.6072361,85.5688272 C15.5853523,87.0685185 12.938849,86.8234568 10.9981006,85.1287037 C9.26762323,83.6179012 8.87061677,81.1546296 9.99041032,78.9237654 C17.4579716,64.045679 24.9385394,49.1737654 32.369249,34.2771605 C33.1604748,32.6901235 34.2446555,31.5089506 35.7215071,30.567284 C43.0175071,25.9157407 50.2943071,21.2345679 57.5707974,16.5524691 C61.0534297,14.3111111 65.4189523,15.192284 67.9381781,18.7018519 C69.0291716,20.2216049 69.6206555,21.9274691 69.6283974,24.2308642" id="Fill-1" fill="#000000"></path>
                <g id="Group-5" transform="translate(0.000000, 47.734877)">
                    <mask id="mask-2" fill="white">
                        <use xlink:href="#path-1"></use>
                    </mask>
                    <g id="Clip-4"></g>
                    <path d="M86.3267923,2.03324074 C86.0555148,4.14527778 86.1629729,6.25453704 85.1840826,8.18787037 C84.1352052,10.2600926 82.6239794,11.8489815 80.5404697,12.8702778 C54.7443406,25.5156481 28.9444955,38.1542284 3.14619871,50.7946605 C2.40699871,51.1570062 1.68885677,51.4499074 0.925811613,50.804537 C-0.47300129,49.6205864 -0.278833548,48.1178086 1.45443097,47.2514506 C4.53943742,45.708858 7.64333419,44.2029938 10.7391794,42.6807716 C33.3320052,31.5721296 55.9235923,20.4607099 78.5201342,9.35916667 C80.0908181,8.58756173 81.3639019,7.56626543 81.7754632,5.78570988 C81.9652955,4.96348765 82.0266116,4.11194444 82.152031,3.27429012 C82.2356439,2.71533951 82.30656,2.15330247 82.4236181,1.60114198 C82.6171665,0.687561728 83.4136568,0.182623457 84.4074116,0.310092593 C85.6950503,0.475216049 86.3497084,1.08447531 86.3267923,2.03324074" id="Fill-3" fill="#000000" mask="url(#mask-2)"></path>
                </g>
                <path d="M95.8587561,54.5755864 C95.6094658,55.9351543 95.4521497,57.4042901 95.0585497,58.8076852 C94.3552723,61.318179 92.7207948,63.0882407 90.3656981,64.2407099 C81.5070658,68.5762037 72.6611303,72.9363889 63.8090013,77.2848457 C48.8552981,84.6308333 33.9009755,91.9749691 18.9457239,99.3178704 C18.62304,99.4765123 18.2984981,99.6450309 17.9566142,99.7490432 C16.6119948,100.157994 15.5962529,99.6990432 15.1438142,98.5055247 C14.8010013,97.6002778 15.3054658,96.6036728 16.4655174,96.0289815 C20.0422916,94.2573765 23.6295948,92.5076852 27.2119432,90.7481173 C47.5976981,80.7351543 67.9797368,70.7144753 88.3747819,60.7209568 C90.1399432,59.8558333 91.2309368,58.5971914 91.49664,56.6370062 C91.6174142,55.7465741 91.8118916,54.8666358 91.9664206,53.9808333 C92.1543948,52.9024383 93.0964335,52.1030556 94.0579819,52.2144753 C95.0458529,52.3283642 95.9324594,53.4475 95.8587561,54.5755864" id="Fill-6" fill="#000000"></path>
                <path d="M79.2677265,8.3216358 C79.3627974,12.0691667 76.39392,16.5827469 71.2477006,16.5392284 C66.3430297,16.4978704 62.8368619,12.7432407 62.9378168,8.09725309 C63.0331974,3.67472222 66.3126813,0.0299691358 71.2802168,0.000339506173 C76.5134555,-0.0311419753 79.4039845,4.54910494 79.2677265,8.3216358" id="Fill-8" fill="#000000"></path>
            </g>
        </g>
    </g>
</svg>