<?xml version="1.0" encoding="UTF-8" standalone="no"?>
<svg width="621px" height="249px" viewBox="0 0 621 249" version="1.1" xmlns="http://www.w3.org/2000/svg" xmlns:xlink="http://www.w3.org/1999/xlink">
    <!-- Generator: Sketch 43.2 (39069) - http://www.bohemiancoding.com/sketch -->
    <title>Slice 1</title>
    <desc>Created with Sketch.</desc>
    <defs>
        <polygon id="path-1" points="7.16782564e-15 51.1856845 7.16782564e-15 0.290587515 86.3273738 0.290587515 86.3273738 51.1856845 0 51.1856845"></polygon>
        <polygon id="path-3" points="0.0159042452 0.182543697 16.5809628 0.182543697 16.5809628 16.733286 0.0159042452 16.733286 0.0159042452 0.182543697"></polygon>
        <polygon id="path-5" points="0 101.897813 108.070267 101.897813 108.070267 0.300236345 0 0.300236345"></polygon>
        <polygon id="path-7" points="1.04924821e-15 27.8659158 1.04924821e-15 0.306299895 27.4891508 0.306299895 27.4891508 27.8659158 0 27.8659158"></polygon>
    </defs>
    <g id="Page-1" stroke="none" stroke-width="1" fill="none" fill-rule="evenodd">
        <polygon fill="#231F1F" transform="translate(101.865399, 16.870098) rotate(-270.000000) translate(-101.865399, -16.870098) " points="99.860586 12 99 12.860586 103.009626 16.8699844 99 20.8798375 99.860586 21.7401961 104.730798 16.8699844"></polygon>
        <path d="M146.014378,58.359136 L138.97774,65.3954956 C138.713575,65.6593834 138.281632,65.6593834 138.017744,65.3954956 L137.223303,64.6010544 C136.959415,64.3368889 136.527195,63.9049462 136.263029,63.6407807 L133.985539,61.3632902 C133.721373,61.0991246 133.721373,60.6671819 133.985539,60.4030164 L134.779702,59.608853 C135.043868,59.3446875 135.476088,59.3446875 135.739976,59.608853 L138.017467,61.8863435 C138.281632,62.1505091 138.713575,62.1505091 138.97774,61.8863435 L144.259663,56.6046989 C144.523828,56.3405333 144.955771,56.3405333 145.219937,56.6046989 L146.014378,57.3988622 C146.278543,57.6630278 146.278543,58.0949704 146.014378,58.359136 M139.999958,51 C134.477204,51 130,55.4772036 130,60.9999583 C130,66.5227131 134.477204,70.9999167 139.999958,70.9999167 C145.522713,70.9999167 149.999917,66.5227131 149.999917,60.9999583 C149.999917,55.4772036 145.522713,51 139.999958,51" id="Fill-1" fill="#FD7C00"></path>
        <g transform="translate(236.000000, 148.000000)">
            <path d="M69.6283974,24.2308642 C69.5008103,26.9722222 67.9784361,29.3151235 65.3796232,31.0132716 C55.9806039,37.1555556 46.5729135,43.2848765 37.1831845,49.4410494 C36.7592361,49.7191358 36.3746168,50.1598765 36.1451458,50.6123457 C30.6180232,61.492284 25.1293006,72.3916667 19.5792619,83.2598765 C19.1293006,84.1410494 18.4037265,84.9777778 17.6072361,85.5688272 C15.5853523,87.0685185 12.938849,86.8234568 10.9981006,85.1287037 C9.26762323,83.6179012 8.87061677,81.1546296 9.99041032,78.9237654 C17.4579716,64.045679 24.9385394,49.1737654 32.369249,34.2771605 C33.1604748,32.6901235 34.2446555,31.5089506 35.7215071,30.567284 C43.0175071,25.9157407 50.2943071,21.2345679 57.5707974,16.5524691 C61.0534297,14.3111111 65.4189523,15.192284 67.9381781,18.7018519 C69.0291716,20.2216049 69.6206555,21.9274691 69.6283974,24.2308642" id="Fill-1" fill="#000000"></path>
            <g id="Group-5" transform="translate(0.000000, 47.734877)">
                <mask id="mask-2" fill="white">
                    <use xlink:href="#path-1"></use>
                </mask>
                <g id="Clip-4"></g>
                <path d="M86.3267923,2.03324074 C86.0555148,4.14527778 86.1629729,6.25453704 85.1840826,8.18787037 C84.1352052,10.2600926 82.6239794,11.8489815 80.5404697,12.8702778 C54.7443406,25.5156481 28.9444955,38.1542284 3.14619871,50.7946605 C2.40699871,51.1570062 1.68885677,51.4499074 0.925811613,50.804537 C-0.47300129,49.6205864 -0.278833548,48.1178086 1.45443097,47.2514506 C4.53943742,45.708858 7.64333419,44.2029938 10.7391794,42.6807716 C33.3320052,31.5721296 55.9235923,20.4607099 78.5201342,9.35916667 C80.0908181,8.58756173 81.3639019,7.56626543 81.7754632,5.78570988 C81.9652955,4.96348765 82.0266116,4.11194444 82.152031,3.27429012 C82.2356439,2.71533951 82.30656,2.15330247 82.4236181,1.60114198 C82.6171665,0.687561728 83.4136568,0.182623457 84.4074116,0.310092593 C85.6950503,0.475216049 86.3497084,1.08447531 86.3267923,2.03324074" id="Fill-3" fill="#000000" mask="url(#mask-2)"></path>
            </g>
            <path d="M95.8587561,54.5755864 C95.6094658,55.9351543 95.4521497,57.4042901 95.0585497,58.8076852 C94.3552723,61.318179 92.7207948,63.0882407 90.3656981,64.2407099 C81.5070658,68.5762037 72.6611303,72.9363889 63.8090013,77.2848457 C48.8552981,84.6308333 33.9009755,91.9749691 18.9457239,99.3178704 C18.62304,99.4765123 18.2984981,99.6450309 17.9566142,99.7490432 C16.6119948,100.157994 15.5962529,99.6990432 15.1438142,98.5055247 C14.8010013,97.6002778 15.3054658,96.6036728 16.4655174,96.0289815 C20.0422916,94.2573765 23.6295948,92.5076852 27.2119432,90.7481173 C47.5976981,80.7351543 67.9797368,70.7144753 88.3747819,60.7209568 C90.1399432,59.8558333 91.2309368,58.5971914 91.49664,56.6370062 C91.6174142,55.7465741 91.8118916,54.8666358 91.9664206,53.9808333 C92.1543948,52.9024383 93.0964335,52.1030556 94.0579819,52.2144753 C95.0458529,52.3283642 95.9324594,53.4475 95.8587561,54.5755864" id="Fill-6" fill="#000000"></path>
            <path d="M79.2677265,8.3216358 C79.3627974,12.0691667 76.39392,16.5827469 71.2477006,16.5392284 C66.3430297,16.4978704 62.8368619,12.7432407 62.9378168,8.09725309 C63.0331974,3.67472222 66.3126813,0.0299691358 71.2802168,0.000339506173 C76.5134555,-0.0311419753 79.4039845,4.54910494 79.2677265,8.3216358" id="Fill-8" fill="#000000"></path>
        </g>
        <path d="M55.276,38.245 L29.222,54.258 C27.991,55.488 25.974,55.488 24.743,54.258 C24.12,53.635 23.811,52.81 23.82,51.989 C23.828,51.188 23.805,20.79 23.805,19.979 C23.805,19.168 24.114,18.357 24.73,17.742 C25.963,16.512 27.978,16.512 29.211,17.743 L55.276,33.77 C56.508,35 56.507,37.015 55.276,38.245 M36,0 C16.118,0 0,16.118 0,36 C0,55.882 16.118,72 36,72 C55.881,72 72,55.882 72,36 C72,16.118 55.881,0 36,0" id="Fill-1" fill="#FFFFFF"></path>
        <polygon fill="#FFFFFF" points="186.224629 9.99985927 180.500305 15.7246526 174.775512 9.99985927 173 11.7753708 178.724793 17.5001642 173 23.2249575 174.775512 25 180.500305 19.2752066 186.224629 25 188.000141 23.2249575 182.275347 17.5001642 188.000141 11.7753708"></polygon>
        <path d="M108.415042,58.1679407 C108.680827,57.9015076 108.680827,57.4660958 108.415042,57.1998788 C108.282149,57.0665543 108.10712,57 107.931875,57 C107.75663,57 96.8626933,57.0047539 96.689609,57.0030252 C96.512203,57.0012965 96.3341488,57.0678508 96.1995277,57.2026879 C95.9335268,57.4686889 95.9335268,57.9043167 96.1993116,58.1705337 L100.143947,62.1199234 C100.409732,62.3861404 100.844928,62.8217683 101.110713,63.0882014 L101.822281,63.8004183 C102.088066,64.0664192 102.523262,64.0666353 102.789047,63.8004183 L108.415042,58.1679407 Z" id="global-nav---expanded" fill="#FD7C00"></path>
        <g id="logo" transform="translate(0.000000, 97.000000)" fill="#FFFFFF">
            <polygon id="Fill-1" points="85 1 85 32.1087213 97.7052625 32.1087213 97.7052625 22.2165246 103.773111 22.2165246 103.773111 17.8619016 93.3476876 17.8619016 93.3476876 27.7540984 89.3575748 27.7540984 89.3575748 5.35462295 106.200985 5.35462295 106.200985 9.39763934 94.6637267 9.39763934 94.6637267 13.7522623 110.558035 13.7522623 110.558035 1"></polygon>
            <polygon id="Fill-2" points="193.984095 1 193.984095 10.3256393 186.767666 1 177 1 177 32.1087213 189.705787 32.1087213 189.705787 22.451541 185.348213 22.451541 185.348213 27.7540984 181.357575 27.7540984 181.357575 5.35462295 184.628512 5.35462295 198.34167 23.071082 198.34167 5.35462295 202.857779 5.35462295 202.857779 27.7540984 198.262403 27.7540984 198.262403 32.1087213 207.214829 32.1087213 207.214829 1"></polygon>
            <polygon id="Fill-3" points="212 1 212 14.8481311 220.390733 14.8481311 220.390733 32.1087213 229.537913 32.1087213 229.537913 27.7540984 224.748308 27.7540984 224.748308 10.4935082 216.357575 10.4935082 216.357575 5.35462295 237.180074 5.35462295 237.180074 10.4935082 229.537913 10.4935082 229.537913 14.8481311 241.537649 14.8481311 241.537649 1"></polygon>
            <polygon id="Fill-4" points="115 1 115 32.1087213 127.705262 32.1087213 127.705262 21.4674098 123.347688 21.4674098 123.347688 27.7540984 119.357575 27.7540984 119.357575 5.35462295 136.302299 5.35462295 136.302299 15.8375082 131.543666 20.9102951 136.857167 31.7236721 141.711866 31.7236721 136.7821 21.6919344 140.659874 17.5592131 140.659874 1"></polygon>
            <polygon id="Fill-5" points="146 1 146 32.1087213 156.680022 32.1087213 156.680022 27.7540984 150.357575 27.7540984 150.357575 5.35462295 156.680022 5.35462295 156.680022 1"></polygon>
            <polygon id="Fill-6" points="162 1 162 5.35462295 168.322447 5.35462295 168.322447 27.7540984 162 27.7540984 162 32.1087213 172.680022 32.1087213 172.680022 1"></polygon>
            <polygon id="Fill-7" points="0 31.8499672 19.7825813 31.8499672 31.8720824 19.7686557 31.8720824 0"></polygon>
            <polygon id="Fill-8" points="52 20.0535082 52 31.8499672 72.067102 31.8499672 72.067102 0"></polygon>
            <polygon id="Fill-9" points="32 19.7686557 32 31.8499672 39.9776009 31.8499672 51.7831063 20.0535082 51.7831063 0"></polygon>
            <path d="M32.0895011,32.0813115 L20,32.0813115 L32.0895011,20 L32.0895011,32.0813115 Z M40.0672594,32.0813115 L51.8722399,20.2848525 L51.8722399,32.0813115 L40.0672594,32.0813115 Z" id="Combined-Shape" opacity="0.600000024"></path>
        </g>
        <path d="M172,55.3365452 L172,53 L189.409467,53 L189.409467,55.3365452 L172,55.3365452 Z M172,68 L172,65.6630182 L189.409467,65.6630182 L189.409467,68 L172,68 Z M172,61.6684909 L172,59.3315091 L189.409467,59.3315091 L189.409467,61.6684909 L172,61.6684909 Z" id="Combined-Shape" fill="#FFFFFF"></path>
        <g id="Instagram" opacity="0.5" transform="translate(251.000000, 7.000000)" fill="#FFFFFF">
            <path d="M10.2926266,13.6147271 C8.47021958,13.6186658 6.96514299,12.1175718 6.96177319,10.2926265 C6.95835962,8.46855644 8.45529616,6.96750611 10.2835237,6.96177307 C12.1048366,6.95599626 13.610876,8.4578781 13.6144209,10.2834361 C13.6179657,12.1070247 12.1184909,13.6107884 10.2926266,13.6147271 M10.3397163,5.16129167 C7.46969441,5.15927854 5.16330491,7.41958488 5.16129179,10.2363026 C5.15919113,13.1274186 7.41989135,15.4147271 10.2801539,15.4153398 C13.1314012,15.4159087 15.4148148,13.1393661 15.4149023,10.295865 C15.4150336,7.46418007 13.1407229,5.16326103 10.3397163,5.16129167" id="Fill-4"></path>
            <path d="M18.0941794,14.3927627 C18.0394748,15.5198962 17.681488,16.5362638 16.7540919,17.2734192 C16.1821444,17.72808 15.5163239,17.960684 14.8049453,18.0308371 C14.0373304,18.1064608 13.2639825,18.1486927 12.4925602,18.1572266 C10.8372429,18.1755636 9.18113786,18.1854104 7.52621444,18.1539444 C6.61102845,18.1365264 5.68109409,18.1145133 4.78691466,17.9430034 C3.12380744,17.6240975 2.1097593,16.4634848 1.96231947,14.7693492 C1.86258206,13.6240538 1.83601751,12.4697868 1.83194748,11.3192835 C1.82555799,9.51140606 1.85225383,7.7030472 1.89514223,5.89556361 C1.90643326,5.4196774 1.98113786,4.93320037 2.10892779,4.47442576 C2.5078337,3.0425658 3.49382932,2.21468834 4.93772429,1.99061832 C5.78332604,1.85941482 6.64949672,1.82917412 7.50739606,1.81586996 C9.16980306,1.79004939 10.8333479,1.78615442 12.4955799,1.81709534 C13.4035449,1.83403188 14.3256893,1.85740169 15.2135667,2.02523538 C16.8762801,2.33945858 17.8817505,3.50409753 18.0529103,5.19175617 C18.1292779,5.94466646 18.1582932,6.70365989 18.1782495,7.46068396 C18.1989934,8.24777368 18.1828446,9.03586996 18.1828446,9.8235286 C18.1963676,9.82383495 18.2098906,9.82409753 18.2233698,9.82436011 C18.1830635,11.3472923 18.1680088,12.8714498 18.0941794,14.3927627 M19.9729978,7.19341919 C19.9589059,6.27131854 19.9203939,5.33481963 19.747046,4.43289403 C19.3652516,2.44637324 18.1927352,1.086417 16.2606565,0.416657704 C15.2528228,0.0673360409 14.2006127,0.032456391 13.1524726,0.0211215989 C11.1692779,-0.000278838769 9.1854267,-0.0118324493 7.20249453,0.0181894326 C6.28774617,0.0320187542 5.3633698,0.0875548593 4.46315098,0.240771489 C2.94608315,0.498977179 1.75199125,1.30659206 0.938949672,2.62996186 C0.318468271,3.63993998 0.108490153,4.76781744 0.0750109409,5.93175617 C0.0361925602,7.27976492 0.0238512035,8.62856142 0,9.97700781 C0.00932166302,9.9771391 0.018643326,9.97722663 0.0279649891,9.97735792 C0.0279649891,10.9107934 -0.000525164114,11.8452791 0.0360175055,12.7772266 C0.072166302,13.6998525 0.0908971554,14.63587 0.263851204,15.5378831 C0.644989059,17.5251041 1.81816193,18.8848853 3.7502407,19.554557 C4.75798687,19.9038349 5.8102407,19.9389334 6.85859956,19.9501807 C8.83448578,19.9713185 10.8110722,19.9833535 12.7866958,19.9532441 C13.7087965,19.9391522 14.644814,19.8998525 15.5473961,19.7286927 C17.5451204,19.3498306 18.9075274,18.1711435 19.5779431,16.230312 C19.9238074,15.2292616 19.9584245,14.1842288 19.9698468,13.1433973 C19.9916411,11.1602026 20.0032385,9.17630759 19.9729978,7.19341919" id="Fill-1"></path>
            <path d="M15.4103304,3.87097423 C14.7371576,3.86882981 14.1975077,4.39850158 14.1935689,5.06519743 C14.189674,5.72340311 14.7396521,6.27412521 15.4026718,6.27591953 C16.055976,6.27767007 16.5942254,5.740646 16.598558,5.0827029 C16.6030219,4.39915804 16.0872232,3.87311865 15.4103304,3.87097423" id="Fill-6"></path>
        </g>
        <path d="M224.502977,8 L224.603886,8 C224.637731,8.01538222 224.671263,8.01538222 224.705108,8 L225.331558,8 C225.483547,8.02111286 225.637418,8.02111286 225.790034,8.03679669 C226.050141,8.06333857 226.296772,8.13844001 226.540583,8.22108176 C227.10843,8.41351035 227.615168,8.70939194 228.069884,9.08761367 C228.153557,9.1575877 228.230022,9.23600688 228.3068,9.31291799 C228.359448,9.36509691 228.414917,9.37595495 228.489188,9.36117595 C229.353494,9.1847328 230.174867,8.89458185 230.955813,8.49766016 C231.044814,8.45241833 231.1335,8.40597005 231.219994,8.35560081 C231.260107,8.33207505 231.30586,8.30885091 231.351614,8.3405202 C231.403949,8.37671366 231.386713,8.42768613 231.37073,8.47353119 C231.257913,8.79776432 231.100595,9.10118622 230.91194,9.38982911 C230.561893,9.92609564 230.10937,10.3682592 229.574115,10.7335116 C229.535569,10.7597518 229.494202,10.7817695 229.449076,10.7932308 C229.450642,10.7923259 229.454403,10.7911195 229.463178,10.7881034 C229.647133,10.7317019 229.839235,10.7208438 230.026324,10.6834439 C230.653087,10.5591797 231.26136,10.380022 231.850517,10.1399387 C231.900031,10.1197307 231.950172,10.0931888 232,10.1393355 L232,10.1586387 C231.920088,10.3966107 231.739267,10.5709426 231.587277,10.7630695 C231.278909,11.1536574 230.919148,11.4999082 230.551238,11.8371107 C230.319962,12.0488424 230.074271,12.2473033 229.813538,12.4258577 C229.730179,12.483164 229.698214,12.550122 229.701348,12.6469395 C229.706362,12.8348439 229.701034,13.0227483 229.703228,13.2109543 C229.710122,13.8932012 229.632404,14.5679077 229.512692,15.2389949 C229.39016,15.9269724 229.207458,16.6007741 228.973989,17.2607016 C228.800063,17.7517263 228.595425,18.2306865 228.366343,18.7009 C228.028518,19.3952113 227.624882,20.0524243 227.171733,20.6815874 C226.909119,21.0465382 226.622375,21.3933922 226.321216,21.7299915 C226.103416,21.9730909 225.879348,22.2104598 225.642432,22.4348592 C224.830147,23.2036688 223.93607,23.8702318 222.943278,24.4116257 C222.205578,24.8136748 221.43466,25.143337 220.629583,25.3978977 C219.853964,25.6428068 219.060796,25.815329 218.251645,25.9233062 C217.924475,25.9667383 217.596051,25.9781996 217.267001,25.9911689 C217.139455,25.9962963 217.011908,25.9996141 216.884049,25.9996141 L216.614541,25.9996141 L215.866186,25.9996141 L215.701974,25.9996141 L215.598245,25.9996141 C214.764651,26.007456 213.946412,25.8952562 213.136008,25.7115744 C211.982451,25.4500766 210.887496,25.0435033 209.842369,24.5090465 C209.592918,24.3817661 209.349107,24.244231 209.110624,24.0985523 C209.06581,24.0711055 209.014102,24.0484846 209,23.9911783 C209.00094,23.9239188 209.054528,23.9218075 209.099969,23.9260301 C209.330931,23.9471429 209.56252,23.9558897 209.793795,23.9694622 C210.009401,23.9821299 210.223754,23.9833364 210.438734,23.968859 C210.649953,23.9543816 210.861485,23.9459365 211.072704,23.9272365 C211.553432,23.884106 212.025071,23.79694 212.491695,23.6823274 C213.057662,23.5435858 213.602632,23.3508556 214.131934,23.1122803 C214.698214,22.857418 215.229082,22.5476622 215.732999,22.1932679 C215.756816,22.1763776 215.784707,22.162805 215.799749,22.1287228 C215.465058,22.0991648 215.135694,22.0575424 214.813851,21.9715829 C214.125979,21.7872978 213.507364,21.4793517 212.965215,21.0293463 C212.45597,20.6067876 212.050768,20.1085242 211.755563,19.5273174 C211.678784,19.3759081 211.615481,19.2184665 211.555939,19.0601201 C211.507991,18.9331414 211.561893,18.8701044 211.701974,18.8951382 C211.940771,18.9379672 212.183328,18.9557623 212.424318,18.9578736 C212.729865,18.9605881 213.035099,18.9310301 213.336572,18.8746286 C213.395801,18.8634689 213.45409,18.8471819 213.488248,18.8489916 C213.278596,18.809782 213.054842,18.7295531 212.832654,18.6460065 C212.137574,18.385112 211.554372,17.9691887 211.060169,17.4386528 C210.403635,16.7331818 210.021623,15.9025418 209.891257,14.9645278 C209.86838,14.8007523 209.860545,14.6357705 209.866186,14.4701853 C209.871827,14.3109341 209.918207,14.279868 210.063616,14.352255 C210.367283,14.5027595 210.682858,14.6206898 211.013162,14.7048397 C211.280476,14.7733056 211.551865,14.8146265 211.846443,14.84147 C211.75995,14.7518912 211.668129,14.6948865 211.58665,14.6273253 C211.178314,14.2880116 210.829521,13.9004399 210.554058,13.4531489 C210.186149,12.8550519 209.973676,12.2065856 209.911,11.5164969 C209.842996,10.7654824 209.959887,10.0382954 210.263554,9.34066632 C210.326543,9.1970989 210.399248,9.05865889 210.473206,8.9205205 C210.54215,8.79203369 210.612974,8.78660467 210.707615,8.89729636 C210.977437,9.21217951 211.26136,9.51590302 211.563146,9.80152979 C212.222187,10.4246606 212.93513,10.9856594 213.711689,11.469747 C214.130367,11.7303399 214.560326,11.9725346 215.006581,12.186076 C216.232529,12.7730134 217.520213,13.1786818 218.874647,13.3837781 C219.28361,13.4456086 219.693513,13.4941682 220.106863,13.5158843 C220.248825,13.5234246 220.246945,13.5179956 220.222501,13.3801588 C220.093074,12.6469395 220.125979,11.9227685 220.351927,11.2088524 C220.553118,10.5730539 220.881542,10.0078325 221.338765,9.50926755 C222.022563,8.7627773 222.8712,8.28623 223.874334,8.06032244 C224.054215,8.01960479 224.24099,8.0223193 224.424945,8.00934998 C224.450956,8.00754031 224.478847,8.01809673 224.502977,8" id="Twitter" fill="#FFFFFF" opacity="0.5"></path>
        <path d="M229.994057,63.6230287 C230.004549,65.6718045 229.997954,67.7208809 229.997954,69.7693562 C229.997954,69.995996 229.997355,69.995996 229.776425,69.995996 L226.234049,69.995996 C226.015517,69.995996 226.015517,69.995996 226.015217,69.7696568 C226.014617,67.5342187 226.019414,65.2987806 226.008922,63.0633425 C226.006523,62.5388246 225.938476,62.0167114 225.72534,61.5267606 C225.434264,60.8579628 224.909367,60.5366392 224.196216,60.4996674 C223.847584,60.4816325 223.502249,60.4984651 223.165308,60.6030681 C222.450358,60.824598 222.060058,61.3437054 221.860112,62.0365499 C221.686845,62.6377166 221.676653,63.2551147 221.676653,63.8737151 C221.676653,65.8389288 221.676653,67.8041425 221.676353,69.7693562 C221.676353,69.995996 221.676053,69.995996 221.455423,69.995996 C220.269535,69.995996 219.083647,69.9962966 217.897759,69.995996 C217.70111,69.995996 217.699611,69.9956955 217.699611,69.8054262 C217.699311,65.6982558 217.699911,61.5907849 217.697213,57.4833139 C217.696913,57.3378316 217.735584,57.2903394 217.887267,57.2912412 C219.033585,57.2972528 220.180504,57.2975534 221.326822,57.2909406 C221.480004,57.2900388 221.514478,57.3351263 221.51178,57.4809092 C221.503386,57.9858892 221.508482,58.4908692 221.508482,58.9955486 C221.791764,58.5521882 222.128106,58.1719503 222.53879,57.8611471 C223.237853,57.3321205 224.028345,57.056185 224.901273,56.9960684 C225.645301,56.9446686 226.377039,57.0089934 227.09079,57.2178988 C228.344725,57.5849111 229.14451,58.4265443 229.56089,59.6520225 C229.75694,60.2294431 229.880445,60.824598 229.914319,61.4329786 C229.955387,62.1624943 229.99046,62.8929118 229.994057,63.6230287 Z M215.09986,57.2946378 C215.294111,57.2946378 215.29561,57.2949383 215.29561,57.4897163 C215.29591,61.5962855 215.29501,65.7025542 215.298308,69.8088228 C215.298308,69.9534034 215.262036,70.000595 215.109153,69.9999938 C213.90408,69.9930804 212.699007,69.9930804 211.494233,69.9999938 C211.34255,70.000595 211.307776,69.9576116 211.308076,69.8109269 C211.312573,67.752833 211.311074,65.694739 211.311074,63.6369457 L211.311074,57.5068496 C211.311074,57.2946378 211.311374,57.2946378 211.529006,57.2946378 C212.719391,57.2943372 213.909476,57.2943372 215.09986,57.2946378 Z M213.298036,51.0000024 C214.680573,51.0015053 215.603863,52.1229816 215.598467,53.3150951 C215.592172,54.5868631 214.569059,55.6073434 213.291441,55.6070428 C212.097459,55.6199679 210.997905,54.656899 211.000003,53.3012682 C211.002101,52.0207833 211.994338,50.9981989 213.298036,51.0000024 Z" id="LinkedIn" fill="#FFFFFF" opacity="0.5"></path>
        <g id="Front-icon" transform="translate(130.000000, 6.000000)" fill="#FFFFFF">
            <polygon id="Fill-1" points="12.5420244 18.2550978 15.9939756 14.8709239 15.9939756 18.2550978"></polygon>
            <polygon id="Fill-2" points="10.0366585 18.2550978 4.1334878 18.2550978 4.1334878 4.07442391 16.0083659 4.07442391 16.0083659 9.88768478 8.62373171 9.88768478 8.62373171 7.90266304 13.9837317 7.90266304 13.9837317 6.05944565 6.15812195 6.05944565 6.15812195 16.2700761 8.01202439 16.2700761 8.01202439 11.7612717 12.8559268 11.7612717 12.8559268 13.7462935 10.0366585 13.7462935"></polygon>
            <path d="M0,21.9923 L19.9109756,21.9923 L19.9109756,0.000191304348 L0,0.000191304348 L0,21.9923 Z M2.02463415,20.0072783 L17.8865854,20.0072783 L17.8865854,1.98497391 L2.02463415,1.98497391 L2.02463415,20.0072783 Z" id="Fill-3"></path>
        </g>
        <g transform="translate(1.000000, 146.000000)">
            <path d="M51.1596442,52.2270729 C48.0425444,55.6987057 44.9683749,59.1229012 41.8939052,62.5467965 C41.5429575,62.9377042 41.1628893,63.3060942 40.844965,63.7222218 C39.3877366,65.6281221 37.3453953,66.4162425 35.0748929,66.4378595 C27.0955618,66.5150203 19.1150298,66.5099163 11.1353984,66.4876988 C8.79194462,66.4810936 6.86488466,64.9760088 6.17349674,62.816709 C5.46349568,60.5982626 6.18910775,58.3149652 8.08434525,56.8768332 C9.17141242,56.0517837 10.4443107,55.8467223 11.7685453,55.8518263 C17.7973999,55.8767459 23.8259544,55.8965615 29.8545088,55.9394953 C30.3774779,55.9433984 30.7212205,55.7920792 31.0649631,55.3927649 C40.1088455,44.8931997 49.1665376,34.4050435 58.2206272,23.9138849 C58.4259722,23.6757975 58.6181078,23.4260008 58.8882984,23.093339 C58.6136046,23.0738236 58.4505895,23.0534075 58.2875745,23.0522066 C56.2362268,23.0350931 54.1848792,23.0017669 52.1341319,23.0251853 C51.8138058,23.0290884 51.4007143,23.2101309 51.1911664,23.4497195 C47.0272279,28.215371 42.8804014,32.9960343 38.7455834,37.7872059 C37.1379489,39.6501724 34.4063211,39.9194844 32.6704961,38.3444446 C30.856616,36.6982487 30.8512122,34.1519442 32.5239927,32.2511479 C37.1838813,26.9558795 41.8020404,21.6236821 46.4220008,16.2929858 C47.3454525,15.2277472 48.4526338,14.6296764 49.8750376,14.6296764 C56.504316,14.6299766 63.1335944,14.6284755 69.7628728,14.6200688 C71.4320508,14.6179672 72.8019175,15.2493642 73.9748453,16.4283923 C77.9271344,20.4011197 81.9007387,24.3519297 85.861734,28.3162504 C86.0547703,28.5096026 86.2015739,28.7500919 86.4039167,29.013099 C86.7059298,28.7317775 86.9037694,28.5582409 87.0899008,28.3723946 C90.3312883,25.1397499 93.5705743,21.904403 96.8128624,18.6723588 C98.5237698,16.9676168 101.270108,16.9174774 102.882246,18.5561673 C104.654697,20.3575854 104.658299,22.9357149 102.879844,24.7287263 C98.6867849,28.9557538 94.4916243,33.1806797 90.2919605,37.4014022 C87.9767266,39.7282339 85.2796232,39.7276334 82.9760976,37.4347284 C80.5116584,34.9820977 78.0331092,32.5441786 75.4888137,30.0284983 C71.442258,34.7034784 67.3614781,39.417189 63.1735226,44.2554977 C63.5965211,44.6190839 63.9979044,44.9220224 64.3506533,45.2732989 C67.5599181,48.4678136 70.7292548,51.7031605 73.9763463,54.8583442 C75.8268522,56.6561594 76.2819734,58.7944427 75.7508986,61.1795202 C73.7866124,70.005568 71.7730914,78.8205071 69.7781836,87.6393493 C69.5575279,88.6136162 69.3758997,89.5986916 69.1090114,90.5600484 C68.3506762,93.2912984 65.4031961,94.9203808 62.5866084,94.196511 C59.7823294,93.476244 58.1197561,90.6300035 58.7754188,87.7225147 C60.4683135,80.2172066 62.1522018,72.7097968 63.8162762,65.1978834 C63.8775194,64.9201648 63.7958618,64.4827205 63.6067283,64.2971744 C59.5718808,60.3367568 55.512416,56.4012588 51.4568539,52.4624582 C51.3872048,52.394905 51.3040461,52.3408625 51.1596442,52.2270729 Z" id="Fill-1" fill="#000000"></path>
            <g id="Group-5" transform="translate(17.112076, 93.491196)" fill="#000000">
                <path d="M0.123206949,8.40505642 L0.123206949,5.04901456 L1.25260398,5.04901456 C28.089143,5.04901456 54.9253817,5.0502155 81.7616205,5.04331007 C82.4088773,5.04300983 83.0717451,5.02739754 83.7000885,4.89199095 C85.701601,4.45965061 87.2639036,2.719781 87.5626144,0.681476455 C87.5911345,0.48722354 87.6331642,0.295072279 87.6712911,0.0897106197 L90.9574101,0.0897106197 C90.9769239,1.54885925 90.6316803,2.86959893 89.9378906,4.07234573 C88.3227508,6.8741513 85.8814279,8.39364744 82.6328353,8.39544886 C55.3964142,8.41226209 28.1596928,8.40505642 0.923271568,8.40505642 L0.123206949,8.40505642 Z" id="Fill-3"></path>
            </g>
            <path d="M104.683847,27.9717292 C105.775117,28.4319915 106.800341,28.8640316 107.875099,29.3170883 C107.72019,29.6512513 107.602807,29.922665 107.471014,30.1871732 C97.0623685,51.1265566 86.651021,72.0644388 76.2546842,93.0098269 C75.9859946,93.5505525 75.6923874,93.7979473 75.0673463,93.7547132 C74.2060384,93.6955667 73.3378257,93.7400017 72.3300145,93.7400017 C83.1502505,71.7443868 93.9065414,49.8799753 104.683847,27.9717292" id="Fill-6" fill="#000000"></path>
            <g id="Group-10" transform="translate(71.750636, 0.117693)">
                <mask id="mask-4" fill="white">
                    <use xlink:href="#path-3"></use>
                </mask>
                <g id="Clip-9"></g>
                <path d="M8.323464,16.7332523 C3.77765595,16.7461625 0.0379167585,13.0472507 0.0160012924,8.51638405 C-0.00591417373,3.94078216 3.68669176,0.220853855 8.28863943,0.182723839 C12.8173354,0.145494533 16.551971,3.84951032 16.5807913,8.40709803 C16.6099119,13.0061184 12.9266125,16.7203422 8.323464,16.7332523" id="Fill-8" fill="#000000" mask="url(#mask-4)"></path>
            </g>
            <path d="M31.2691371,87.984531 C32.0532905,88.8215899 32.8344418,89.655046 33.6645276,90.5407432 C32.0133624,91.6092844 30.3558926,92.398906 28.3907058,92.3103362 C27.3666831,92.2640998 26.493667,91.8746933 25.7800634,91.1595303 C17.3720297,82.7318961 8.97300239,74.2955551 0.557163199,65.8760273 C0.149475487,65.4683063 -0.0150406144,65.0662899 0.00117082627,64.5006446 C0.0368960381,63.2345479 0.0122786653,61.9672503 0.0122786653,60.5543381 C0.305585657,60.8227494 0.504626123,60.9917824 0.688655996,61.1758273 C9.54010261,70.0439082 18.4017564,78.9020813 27.2237823,87.7995854 C28.1712509,88.7546372 29.1133157,88.8921454 30.2646282,88.4282803 C30.5654405,88.3069848 30.8584473,88.1667744 31.2691371,87.984531" id="Fill-11" fill="#000000"></path>
            <mask id="mask-6" fill="white">
                <use xlink:href="#path-5"></use>
            </mask>
            <g id="Clip-14"></g>
            <polygon id="Fill-13" fill="#000000" mask="url(#mask-6)" points="0.308617797 39.3210533 28.389535 39.3210533 28.389535 36.0412715 0.308617797 36.0412715"></polygon>
        </g>
        <g transform="translate(119.000000, 153.000000)">
            <g id="Group-3" transform="translate(2.340625, 23.205466)" fill="#000000">
                <path d="M87.4989825,44.8369069 C87.1208044,41.3662809 85.3145106,38.7652427 81.3514981,35.9573038 C82.0346263,34.6362962 82.7231044,33.3048763 83.4908294,31.8202962 C84.4852606,32.5051511 85.5027638,33.0784947 86.37147,33.8268305 C90.2445356,37.1624336 92.2370763,41.4159908 92.27787,46.5512275 C92.2828856,47.1776397 92.47582,47.473884 93.0211856,47.7449374 C95.7894763,49.1200214 98.5661263,50.4836855 101.279245,51.9632275 C103.718176,53.2929679 104.900861,55.4583725 104.568158,58.2323878 C104.217064,61.1615786 102.625773,63.2611511 99.7722169,64.2053038 C98.0749294,64.7672275 96.4140888,64.4457924 94.8395169,63.6571511 C92.1755513,62.3233802 89.5129231,60.9855786 86.8603263,59.6293038 C86.4396825,59.4140061 86.1534575,59.4237466 85.742845,59.7119298 C80.0407481,63.7159298 74.0340356,64.2170595 67.8758513,60.9529985 C45.5546481,49.1227084 23.2642075,37.2333038 0.9627325,25.3657313 C0.71797,25.2357466 0.47722,25.0987084 0.136491875,24.9109527 C0.84837625,23.5519908 1.5512325,22.2101588 2.28552,20.8088763 C2.60685438,20.9744641 2.87335125,21.1084794 3.13650438,21.2485405 C25.5637044,33.1762351 47.9862231,45.1129985 70.4227856,57.0235634 C73.9053013,58.872571 77.477095,58.7869221 81.0415325,57.1868 C81.1886575,57.1202962 81.3197325,57.0185252 81.5337325,56.8868611 C81.2144044,56.7071664 80.9646263,56.5577008 80.7071575,56.4226779 C59.656245,45.3501282 38.603995,34.2809374 17.5550888,23.2053649 C15.1686544,21.9495176 13.17277,20.2466168 11.7359606,17.9253649 C10.3248981,15.6450901 9.96577938,13.2103115 10.5696606,10.5971817 C10.7799825,9.68762443 11.1511388,9.26744122 12.1736575,9.26374656 C15.3960294,9.25199084 18.359595,8.2588 21.0884294,6.56060153 C23.4457731,5.09348702 25.3594013,3.16487634 26.8747888,0.834891603 C26.9934919,0.652174046 27.1242325,0.477517557 27.27002,0.269945038 C27.5398606,0.434189313 27.7772669,0.570891603 28.0069825,0.720021374 C39.9769388,8.49425038 51.9405419,16.2782198 63.920195,24.0376702 C66.3273606,25.5968153 67.5331169,27.7222504 67.1602888,30.6034107 C67.055295,31.4122046 66.6854763,32.2011817 66.3507669,32.9609374 C66.060195,33.6209374 66.1223888,34.0750443 66.7891325,34.4132733 C73.5943325,37.8640824 80.3971919,41.3195939 87.2020575,44.7714107 C87.2712731,44.8066779 87.358545,44.8070137 87.4989825,44.8369069" id="Fill-1"></path>
            </g>
            <g id="Group-6" transform="translate(0.000000, 0.029893)">
                <mask id="mask-8" fill="white">
                    <use xlink:href="#path-7"></use>
                </mask>
                <g id="Clip-5"></g>
                <path d="M27.4891025,14.0219267 C27.509165,21.6208275 21.2730713,27.8963695 13.7325806,27.8658046 C6.21649938,27.8352397 0.041930625,21.6755756 0.00013375,14.1666901 C-0.0419975,6.54159084 6.10849625,0.327514504 13.7182025,0.306354198 C21.2784213,0.285193893 27.4693744,6.45090382 27.4891025,14.0219267" id="Fill-4" fill="#000000" mask="url(#mask-8)"></path>
            </g>
        </g>
        <path d="M445.643807,195.621288 C442.303416,202.855167 442.716494,209.778039 446.922735,216.489791 C445.092019,219.071201 442.635362,220.607048 439.486461,220.889267 C436.215861,221.181955 433.111888,220.481423 430.26309,218.860082 C401.897681,202.716893 373.543613,186.553203 345.181257,170.40478 C342.337693,168.786055 340.656593,166.462874 341.059202,163.118557 C341.466173,159.737163 343.343562,157.338519 346.657345,156.294702 C348.792526,155.622523 350.800774,156.16297 352.698664,157.280942 C364.742916,164.374802 376.79502,171.456013 388.844943,178.540713 C390.355054,179.428809 390.446655,179.404818 391.350454,177.900813 C393.218683,174.790733 397.219475,173.660113 400.726057,175.249612 C408.724153,178.874403 416.72312,182.49745 424.721216,186.122677 C431.330898,189.118473 437.939708,192.116887 444.548519,195.114864 C444.876974,195.263607 445.203249,195.417148 445.643807,195.621288 Z M463.978098,220.337086 C455.390701,220.246793 448.508832,213.286845 448.627914,204.811115 C448.746123,196.360684 455.668122,189.488411 464.028696,189.519817 C472.677597,189.552096 479.582584,196.548248 479.485312,205.179701 C479.390221,213.577352 472.384036,220.425198 463.978098,220.337086 Z M449.30886,228.648676 C450.961171,229.637969 452.635293,230.639039 454.401888,231.696379 C452.688072,234.573094 450.348315,236.6664 447.3089,237.897346 C442.525135,239.834494 437.873537,239.461109 433.409068,236.846549 C410.821952,223.619768 388.23309,210.395169 365.645537,197.169697 C365.244673,196.935024 364.850351,196.690318 364.394962,196.41595 C365.430929,194.645866 366.416732,192.960839 367.440485,191.211692 C367.802964,191.404491 368.11877,191.558904 368.421927,191.736 C391.050918,204.962344 413.67991,218.189125 436.307157,231.419395 C441.032907,234.182698 445.829322,233.21914 449.083346,228.841474 C449.125221,228.785205 449.191523,228.747692 449.30886,228.648676 Z" id="Combined-Shape" fill="#000000"></path>
        <g transform="translate(489.000000, 156.000000)" fill="#000000">
            <path d="M0.389045283,20.3441268 C5.09392264,21.8680068 9.55574969,23.3105145 14.0159289,24.757954 C38.1574164,32.5931137 62.296844,40.4364928 86.441627,48.2617892 C96.3370704,51.4685949 106.681127,47.3136794 111.641825,38.1794408 C111.736574,38.0043672 111.844916,37.8362801 112.001869,37.5736697 C115.43135,39.9449716 118.630964,42.4954569 121.376196,45.5789713 C124.415149,48.9920844 126.729482,52.793976 128.17625,57.1782133 C130.573797,64.4445893 124.640486,70.6440849 117.84414,70.1751672 C113.719287,69.8903643 109.803294,68.8386899 105.925611,67.5831739 C75.749061,57.8131633 45.5856931,48.0036995 15.4116145,38.2275243 C7.85192579,35.7781379 2.83767421,30.9311475 0.871026415,23.1473591 C0.656400629,22.2974713 0.569479245,21.4155278 0.389045283,20.3441268" id="Fill-1"></path>
            <g id="Group-5" transform="translate(0.000000, 39.430190)">
                <path d="M4.11949686e-05,4.90715662 C0.524865094,3.28793138 1.02785566,1.7369273 1.5646261,0.0803037087 C2.49027704,0.367161379 3.36196258,0.627716913 4.22746887,0.907588078 C41.4112833,12.9321849 78.5988053,24.9444525 115.771085,37.0056257 C119.871632,38.3363494 124.177331,36.9435691 126.079714,32.3871351 C127.637708,32.9029035 129.20806,33.4227817 130.872749,33.9734826 C130.244937,35.9029909 129.282623,37.538655 127.891469,38.8837626 C124.100708,42.5483899 119.604689,43.6222568 114.613919,42.0174156 C91.5616261,34.60309 68.5303431,27.125064 45.491233,19.6688194 C30.762384,14.9019683 16.0339469,10.1342952 1.30550975,5.36497817 C0.887792767,5.22935779 0.476255031,5.07442177 4.11949686e-05,4.90715662" id="Fill-3"></path>
            </g>
            <path d="M82.7313198,34.7870817 C82.7552129,29.4128156 87.1222915,25.1304991 92.5567318,25.1535134 C97.8494613,25.1752949 102.160927,29.589533 102.122203,34.9469493 C102.083892,40.3010779 97.638955,44.6117514 92.24365,44.5283243 C86.9612192,44.4465411 82.7078387,40.0906608 82.7313198,34.7870817" id="Fill-6"></path>
            <path d="M31.0115311,18.0229633 C31.037072,12.6100659 35.3505972,8.3770659 40.8179934,8.3996693 C46.1362638,8.42186173 50.4485531,12.8052771 50.4102418,18.1507752 C50.3719305,23.5024379 45.9912575,27.7563975 40.5341601,27.7416025 C35.2974557,27.7272185 30.9864022,23.3273643 31.0115311,18.0229633" id="Fill-8"></path>
            <path d="M24.5325513,9.73713291 C24.4789978,15.1520851 20.1518783,19.373167 14.6918972,19.3365906 C9.40122736,19.3016581 5.04980283,14.8541313 5.11818648,9.55178505 C5.18739403,4.19395777 9.6039066,-0.0600017476 15.0342274,0.000821941748 C20.2989443,0.0595907767 24.5848689,4.45328039 24.5325513,9.73713291" id="Fill-10"></path>
            <path d="M76.2761094,26.5552529 C76.1665308,32.0014389 71.6841063,36.2989613 66.2776786,36.1399156 C61.0203767,35.9853906 56.720034,31.5000544 56.8399113,26.2959303 C56.9647321,20.9035814 61.3833044,16.6837325 66.7942635,16.789352 C72.0738107,16.8925057 76.3807447,21.3285253 76.2761094,26.5552529" id="Fill-12"></path>
        </g>
        <path d="M275.87304,66.5 L259,83.3730399 L260.62696,85 L277.5,68.1269601 L294.37304,85 L296,83.3730399 L279.12696,66.5 L296,49.6269601 L294.37304,48 L277.5,64.8730399 L260.62696,48 L259,49.6269601 L275.87304,66.5 Z" id="Combined-Shape" fill-opacity="0.404495018" fill="#000000" fill-rule="nonzero"></path>
    </g>
</svg>