<svg xmlns="http://www.w3.org/2000/svg" width="2890" height="293"><g fill="none" fill-rule="evenodd"><path fill="#000" d="M146.587 240.927c-6.723-2.743-12.72-7.317-17.106-13.16-1.524-2.032-1.92-4.177-1.6-6.14.36-2.206 1.665-4.205 3.445-5.546 1.786-1.346 4.019-2.01 6.178-1.67 1.877.293 3.744 1.32 5.223 3.45l.308.427c2.607 3.527 6.005 6.42 9.875 8.286 3.731 1.798 7.904 2.637 12.222 2.149 8.224-.93 13.892-5.377 19.917-11.416a157.72 157.72 0 002.245-2.348 3.53 3.53 0 011.863-1.435 4.008 4.008 0 012.57.038c.81.283 1.535.819 2.02 1.533.462.678.724 1.515.64 2.48-.552 6.258-3.825 11.844-8.473 16.23-5.162 4.872-12.005 8.242-18.448 9.424-7.098 1.302-14.33.37-20.88-2.302zm24.227-96.56c7.552 4.59 19.058 15.293 10.934 26.673-9.562 10.033-23.33-1.471-30.114-6.674-6.29-4.032-13.359 6.339-7.522 11.047 49.024 36.295 68.919-29.846 30.522-36.443-4.228-.727-5.798 3.977-3.82 5.397zm-87.85-42.22c.834-10.357 16.606-12.709 18.175-2.46 1.405 9.18-.249 17.612-4.384 25.877-3.95 7.896-13.881 4.213-14.632-2.977-1.007-9.638.321-13.998.84-20.44zm120.063-4.586c2.199-2.88 5.374-4.846 9.178-3.735 11.885 3.474 8.382 20.347 4.208 28.56-2.268 4.46-9.599 5.59-12.912 1.663-5.4-6.404-7.986-19.193-1.121-25.5.186-.327.393-.656.647-.988zm-106.44-40.73l1.878-.33c5.808-1.004 13.03-1.969 17.138 2.7 2.179 2.477 2.929 7.078 0 9.449-5.152 4.17-10.848 2.553-17.022 2.906a67.731 67.731 0 00-14.88 2.535C72.95 77.165 64.19 82.775 55.007 88.935c-1.205.808-2.435-.734-1.86-1.86 5.3-10.383 15.574-18.913 25.864-24.111 5.492-2.776 11.502-5.078 17.578-6.133zm95.606-4.652l1.437.294c15.637 3.27 35.953 9.798 43.358 25.158.283 2.172-.016 2.637-.258 2.941l-.08.102c-.2.26-.36.617-1.301.913a36.426 36.426 0 01-.792-.198c-3.394-.89-6.08-2.115-8.68-3.387l-2.819-1.389c-3.27-1.603-6.57-3.148-10.066-4.29-7.462-2.433-15.138-4.148-22.932-5.063-1.69-.198-3.316-.769-4.6-1.746a6.91 6.91 0 01-2.573-3.918c-.55-2.21-.392-3.882.794-5.875a7.443 7.443 0 013.63-3.13c1.493-.607 3.193-.75 4.882-.412z"/><path fill="#FFF" d="M386.785 210.376c16.75-11.225 101.53-9.029 109.355-.417 7.824 8.611 25.908 33.189-12.828 45.26-38.736 12.07-86.686 7.841-99.178-6.936l-.737-.883c-11.813-14.37-13.028-26.024 3.388-37.024z"/><path fill="#000" d="M459.814 144.367c7.552 4.59 19.058 15.293 10.934 26.673-9.562 10.033-23.33-1.471-30.114-6.674-6.29-4.032-13.359 6.339-7.522 11.047 49.024 36.295 68.919-29.846 30.522-36.443-4.228-.727-5.798 3.977-3.82 5.397zm-68.226-87.536l1.877-.33.963-.162c5.624-.93 12.29-1.552 16.175 2.863 2.179 2.476 2.929 7.078 0 9.448-5.152 4.17-10.848 2.553-17.022 2.906a67.731 67.731 0 00-14.88 2.535c-10.751 3.074-19.512 8.684-28.695 14.844-1.205.808-2.435-.734-1.86-1.86 5.3-10.383 15.574-18.913 25.864-24.111 5.492-2.776 11.502-5.078 17.578-6.133zm49.737 143.44c16.432 1.193 52.042-6.651 66.828 5.115 55.727 69.587-165.203 87.478-141.343 10.49 15.197-24.892 50.152-14.887 74.515-15.605zm-2.817 42.009c-4.064-.331-8.996 2.888-10.189 5.375-1.193 2.488-.732 7.745-.696 8.656 7.105.716 14.272.825 21.397.358-1.85-6.123-1.91-13.462-10.512-14.39zm32.806 10.272c-1.142-7.6-6.578-9.4-10.978-8.26-4.5 1.167-7.143 6.348-6.857 10.96.02.319-.165.589-.286.845a122.917 122.917 0 0018.121-3.545zm-50.394-8.896c-2.562-3.898-8.684-5.78-12.605-5.092-6.403 1.348-7.16 9.484-7.16 11.142 5.902 2.25 12.17 3.744 18.161 4.934 1.203.238 2.41.45 3.617.652l.079-.988c.146-2.117.254-7.08-2.092-10.648zm72.43-.643c-6.566-10.157-20.678-2.885-19.512 8.21 1.254-.394 2.502-.807 3.744-1.24 5.158-1.798 10.816-3.935 15.767-6.97zm-51.686-34.996c-8.832-.795-16.077-.527-21.837.54l-.175 1.925c-.637 6.671-1.46 13.23 2.044 15.914 2.845 2.18 12.288 1.972 18.62.394 1.564-.394 3.597-14.23 1.348-18.773zm13.657-.795c-1.416 6.575-2.081 14.558.761 16.929 3.001 2.503 12.663 2.164 15.19.496 2.21-1.46 2.154-8.173 1.333-15.711-4.893-1.153-13.413-1.714-17.284-1.714zm-39.4 1.402l-2.892.026-1.637.022c-4.14.073-8.605.312-12.826 1.233-8.386 18.123 22.24 21.251 17.51-.611l-.155-.67zm60.58.437l-.053 1.027c-.252 5.09-.085 11.794 2.735 13.604 4.15 2.663 11.943 2.15 16.164-10.17-1.397-3.674-16.213-4.192-18.846-4.461zM395.224 101c1.773 0 3.469.601 5.013 1.715 1.52 1.096 2.897 2.696 4.043 4.69 2.169 3.777 3.525 8.99 3.525 14.754 0 5.765-1.356 10.978-3.525 14.754-1.146 1.995-2.522 3.595-4.043 4.69-1.544 1.114-3.24 1.716-5.013 1.716-1.773 0-3.47-.602-5.014-1.715-1.52-1.096-2.896-2.696-4.042-4.691-2.17-3.776-3.525-8.99-3.525-14.754 0-5.764 1.356-10.977 3.525-14.753 1.146-1.995 2.522-3.595 4.042-4.691 1.545-1.114 3.24-1.716 5.014-1.716zm112.24 0c1.773 0 3.47.601 5.014 1.715 1.52 1.096 2.896 2.696 4.042 4.69 2.17 3.777 3.525 8.99 3.525 14.754 0 5.765-1.356 10.978-3.525 14.754-1.146 1.995-2.522 3.595-4.042 4.69-1.545 1.114-3.24 1.716-5.014 1.716-1.773 0-3.47-.602-5.014-1.715-1.52-1.096-2.896-2.696-4.042-4.691-2.17-3.776-3.525-8.99-3.525-14.754 0-5.764 1.356-10.977 3.525-14.753 1.146-1.995 2.522-3.595 4.042-4.691 1.545-1.114 3.24-1.716 5.014-1.716zm-15.271-48.822l1.437.294.953.203c15.5 3.333 35.15 9.906 42.405 24.955.283 2.172-.016 2.637-.258 2.941l-.08.102c-.2.26-.36.617-1.301.913a36.426 36.426 0 01-.792-.198c-3.394-.89-6.08-2.115-8.68-3.387l-2.819-1.389c-3.27-1.603-6.57-3.148-10.066-4.29-7.462-2.433-15.138-4.148-22.932-5.063-1.69-.198-3.316-.769-4.6-1.746a6.91 6.91 0 01-2.573-3.918c-.55-2.21-.392-3.882.794-5.875a7.443 7.443 0 013.63-3.13c1.493-.607 3.193-.75 4.882-.412zM767.06 229.111c6.32-1.473 11.283 3.88 10.041 10.042-1.315 6.524-8.33 8.76-14.212 8.555-6.669-.23-13.333-1.608-20.035-1.885a303.547 303.547 0 00-20.685-.15c-6.372.172-12.912 1.295-19.234.287-2.462-.393-2.229-3.643-.627-4.798 4.756-3.43 10.92-4.828 16.526-6.267 5.716-1.468 11.56-2.592 17.421-3.278 5.943-.695 11.935-1.042 17.917-1.11 2.723-.03 6.062.574 8.717.084 1.353-.25 2.731-1.144 4.17-1.48zm-18.246-84.744c7.552 4.59 19.058 15.293 10.934 26.673-9.562 10.033-23.33-1.471-30.114-6.674-6.29-4.032-13.359 6.339-7.522 11.047 49.024 36.295 68.919-29.846 30.522-36.443-4.228-.727-5.798 3.977-3.82 5.397zm-54.755-34.275c10.101-1.68 11.868 12.72 1.857 13.725-2.1.212-4.19.396-6.275.579.203.651.338 1.323.412 2.013.095.585.166 1.207.23 1.918.316 3.543-2.196 7.227-5.13 8.946-3.05 1.785-7.429 2.023-10.458 0-1.562-1.044-3.122-2.221-3.983-3.947a11.493 11.493 0 01-1.849-5.931c-4.605 1.195-9.294 2.813-13.945 3.67.171.167.34.346.502.543.124.151-.046.434-.227.296l-2.333-.517c-.718.094-1.436.17-2.152.215l.017-.063c-1.197-.02-2.177-1.435-1.106-2.567 4.11-4.344 10.521-7.23 16.367-9.644l5.632-2.309c7.202-2.927 14.805-5.657 22.441-6.928zm81.26 4.454c6.617-.755 13.168-.455 19.795-.05 11.153.678 6.475 16.942-2.477 13.187.092.595.116 1.191.047 1.746-.35 2.86-1.282 5.275-3.906 6.811-2.437 1.426-5.526 1.422-7.963 0-2.61-1.522-3.787-3.667-4.453-6.454-.516-2.16-.31-3.969-.011-6.109.099-.709.408-1.37.836-1.964a82.291 82.291 0 00-1.875-.448c-5.566-1.266-11.057-1.012-16.607-1.814-.592-.086-.686-1.042-.168-1.285 4.987-2.343 11.327-2.998 16.783-3.62zm-82.28-50.23c3.819-1.458 8.615.965 10.564 4.298 2.212 3.782 1.267 8.148-1.463 11.335-4.188 4.89-12.164 7.901-18.042 10.69l-.471.226c-6.036 2.912-12.237 5.586-18.522 7.916-6.181 2.293-12.611 4.09-19.02 5.631-3.378.813-6.83 1.485-10.282 1.91-2.726.333-4.828-.415-7.436-.415-.381.001-.5-.504-.19-.698 2.438-1.532 4.247-3.549 6.905-4.968a673.301 673.301 0 018.334-4.367c5.637-2.906 11.065-6.14 16.503-9.395 5.732-3.43 11.334-7.044 16.782-10.912 5.33-3.785 10.244-8.927 16.339-11.252zm68.037-3.113c4.768-.925 9.49 1.331 10.901 6.19 1.353 4.656-.062 5.653 3.547 8.984 2.877 2.655 5.979 5.025 9.11 7.358l4.607 3.425c8.345 6.177 16.76 12.018 26.355 16.187.811.352.342 1.556-.427 1.573-15.254.293-29.88-1.772-43.65-8.6-6.432-3.19-12.894-7.225-16.62-13.593-4.318-7.374-4.192-19.514 6.177-21.524z"/><g transform="translate(867)"><path fill="#FFF" d="M100.76 231.153c0-18.392 27.068-22.35 50.432-22.35s49.618 5.39 49.618 22.35c0 16.958-27.528 19.665-44.67 19.665-17.14 0-55.38-1.274-55.38-19.666z"/><ellipse cx="101" cy="115" fill="#FFF" rx="38" ry="32"/><ellipse cx="211.5" cy="115" fill="#FFF" rx="31.5" ry="32"/><path fill="#000" d="M151.882 205.733c9.322-3.34 19.216-2.084 28.62 1.386l.843.316c8.639 3.293 19.195 9.012 22.729 17.946a15.594 15.594 0 011.072 5.386c1.155.114 2.3.263 3.435.463 2.336.41 2.226 4.123 0 4.61-1.41.31-2.846.535-4.295.704-1.34 4.166-4.113 7.947-7.615 10.6-8.198 6.207-19.496 7.375-29.406 8.325-10.959 1.05-21.972.793-32.89-.535l-3.843-.49c-8.94-1.163-18.91-2.656-26.511-7.44-7.155-4.5-12.05-13.191-9.02-21.632 3.1-8.645 13.73-12.313 21.62-15.088 11.338-3.987 23.402-5.552 35.26-4.55zm-15.817 28.969c.11 2.525.206 5.054.306 7.582a3.61 3.61 0 01-.573 2.08 139.37 139.37 0 0016.347.934c-.998-3.016-1.051-6.477-1.108-9.697a613.69 613.69 0 01-14.972-.9zm20.076 1.136l.435 1.633c.674 2.558 1.286 5.19 1.196 7.716a155.69 155.69 0 007.599-.467l3.216-.273c.731-.063 1.471-.128 2.217-.198.165-2.618.473-5.272.747-7.89a1015.26 1015.26 0 01-15.41-.522zm20.38.636c.235 2.313.453 4.678.545 7.02 4.128-.643 8.177-1.643 11.636-3.412 1.74-.89 3.135-1.966 4.175-3.159-3.494-.082-6.978-.258-10.358-.314a312.94 312.94 0 01-2-.04l-3.997-.095zm-71.704-5.321c.27 4.827 7.9 8.272 11.83 9.406a114.932 114.932 0 0011.42 2.659 3.07 3.07 0 01-.083-.934c.245-2.724.486-5.447.743-8.167l-2.069-.165c-7.271-.56-14.833-1.008-21.841-2.8zm47.62-18.392a211.034 211.034 0 002.59 18.034l2.069.044c4.967.078 9.935.11 14.903.117.013-.244.026-.487.035-.728.186-5.053.115-10.106-.07-15.156-6.311-1.393-12.917-1.846-19.526-2.311zm22.119 2.946a583.45 583.45 0 011.434 15.237l4.353-.008c.725-.002 1.45-.005 2.176-.012 4.077-.037 8.266-.305 12.45-.417-.312-2.184-1.598-4.405-3.968-6.425-5.016-4.278-10.58-6.802-16.445-8.375zm-25.998-4.107a103.825 103.825 0 00-14.247 2.535c1.225 3.55.99 7.615 1.25 11.323.115 1.633.209 3.268.295 4.9 5.018.124 10.036.242 15.054.349-.16-6.013-.057-12.025.282-18.034l-.547-.04c-.812-.058-1.537-.463-2.087-1.034zm-17.426 3.388a99.608 99.608 0 00-6.524 2.102l-2.35.85c-5.667 2.065-13.165 5.054-16.324 9.672-.531.775-.85 1.526-1.007 2.251 7.943-.732 16.179.006 24.194.309.11-1.048.222-2.096.341-3.143l.184-1.57c.41-3.392.406-7.159 1.486-10.471zm39.682-72.62c7.552 4.59 19.058 15.292 10.934 26.672-9.562 10.033-23.33-1.471-30.114-6.674-6.29-4.032-13.359 6.339-7.522 11.047 49.024 36.295 68.919-29.846 30.522-36.443-4.228-.727-5.798 3.977-3.82 5.397zM78.257 86.712c10.73-18.65 37.28-18.865 52.469-4.623 14.502 13.599 16.296 36.8 4.713 52.704-12.345 16.95-36.326 21.639-55.773 15.598-18.23-5.663-28.03-25.442-21.78-43.564 3.38-9.802 11.16-16.58 20.37-20.115zm-10-31.238c9.07-8.028 25.549-15.78 37.778-11.83 7.03 2.271 10.096 13.6 2.247 17.191-9.09 4.158-19.568 2.466-28.82 6.776-3.884 1.811-7.538 4.074-10.243 7.393-2.131 2.616-4.3 6.058-7.381 7.566-.81.397-1.907.407-2.556-.329-6.756-7.642 3.077-21.546 8.976-26.767zm129.545-12.228c5.605-1.573 11.823-1.541 17.517-.553 5.692.988 11.47 3.347 16.118 6.788l.54.403c5.072 3.822 11.126 9.384 10.802 16.157-.271 5.655-6.22 9.48-11.356 6.516-4.187-2.417-6.157-7.26-9.702-10.483-2.925-2.661-6.361-4.76-10.027-6.23-4.072-1.632-8.151-2.397-12.521-2.47-3.365-.056-6.75 1.048-10.052 1.4.272.559-2.338.299-3.834-.196-1.108-.472-1.114-1.873-.73-2.782 1.905-4.503 8.836-7.314 13.245-8.55zm6.101 31.644c9.39-1.864 19.828.177 27.686 5.68 14.09 9.87 20.411 30.28 13.863 46.243-6.498 15.843-24.259 25.922-41.195 22.895-17.289-3.09-30.663-20.5-28.798-38.04a33.145 33.145 0 018.87-19.284 3.53 3.53 0 01.146-.534c3.388-9.017 9.808-15.05 19.428-16.96zM117.99 89.23c-10.765-6.48-26.592-2.862-35.84 4.96-1.835 1.555-3.907 1.1-5.034-.256-6.276 5.066-10.707 12.153-11.42 20.783-1.274 15.479 9.749 25.659 24.6 26.83 15.179 1.197 30.887-3.04 38.036-17.582 6.173-12.555 1.642-27.522-10.342-34.735zm101.91.67c-8.43-3.305-20.519-1.352-27.879 4.304-5.603 7.224-8.33 17.136-6.176 25.254 3.112 11.724 14.362 20.857 26.721 19.558 11.438-1.202 21.772-10.358 23-21.983 1.181-11.181-4.955-22.933-15.667-27.133zm-7.152 17.544c1.92-1.37 4.213.173 4.916 2l.402.828c.213.443.431.9.439.918l.076.22c.102.192.224.37.34.55.09.063.837.998.937 1.12 1.205 1.488 1.845 2.849 1.807 4.807-.073 3.87-3.685 6.597-7.43 5.66-4.028-1.008-5.743-5.174-5.376-9 .29-3.027 1.394-5.324 3.889-7.103zm-109.36.74c1.778-1.617 4.52-1.753 6.274 0 .963.961 1.353 2.033 2.044 3.152l.327.514c.72 1.105 1.472 2.165 1.665 3.52.458 3.188-.531 6.156-3.673 7.483-3.125 1.318-6.02-.03-7.922-2.596-2.252-3.04-1.568-9.48 1.286-12.074z"/></g><path fill="#000" d="M1351.648 205.743c-8.386-4.454-18.227-3.7-26.648.278-10.294 4.863-18.253 12.848-25.303 21.629-2.706 3.37-5.239 6.886-7.769 10.398-1.04 1.446-2.082 2.89-3.134 4.324-.205.269-.43.558-.669.865-1.685 2.165-3.985 5.16-4.866 7.878-.353 1.091-.485 2.144-.326 3.104.077.464.219.91.437 1.33-1.344.347-2.24.016-2.861-.651-.982-1.057-1.327-2.644-1.341-4.466-.05-6.526 4.253-16.04 6.01-19.96.181-.404.336-.75.459-1.03 6.354-14.54 16.52-28.702 30.651-36.54 13.692-7.592 29.898-9.027 44.063-1.849 15.65 7.93 19.919 23.634 21.692 39.773.272 2.473-.847 4.753-2.567 6.473-1.942 1.942-4.67 3.199-7.22 3.199-2.647 0-5.072-1.12-6.844-2.894-1.788-1.787-2.917-4.24-2.937-6.898l-.017-1.548c-.082-5.389-.46-10.449-2.416-14.74-1.572-3.449-4.147-6.42-8.394-8.675zm-20.834-72.376c7.552 4.59 19.058 15.293 10.934 26.673-9.562 10.033-23.33-1.471-30.114-6.674-6.29-4.032-13.359 6.339-7.522 11.047 49.024 36.295 68.919-29.846 30.522-36.443-4.228-.727-5.798 3.977-3.82 5.397zm-63.564 1.507c-2.034.996-4.29 1.4-6.502.938-1.981-.413-3.917-1.523-5.631-3.48-2.354-2.688-4.063-6.506-2.921-10.15l.327-.936c.386-1.09.907-2.112 1.541-3.038.407-1.985.489-3.284.566-4.519.02-.315.039-.626.06-.936.123-1.729.376-3.538.957-5.202.109-.314.23-.624.362-.93l-.974-.343a317.97 317.97 0 01-6.703-2.434c-6.325-2.391-12.579-5.087-18.633-8.103-2.99-1.49-5.906-3.167-8.785-4.864-1.375-.914-4.39-3.043-5.743-4.189l-1.026-.87-.537 1.234c-.577.581-1.043.627-1.435.496-.42-.14-.733-.472-.929-.87a2.5 2.5 0 01-.185-1.629c.112-.507.39-.998.857-1.384 1.784-1.47 4.3-.832 6.39-.422.299.058.591.115.875.167 3.25.594 6.493 1.301 9.723 2.032l3.888.885 4.45 1.019c16.846 3.86 33.664 7.712 50.88 9.404l1.814.17c3.07.274 5.8 1.577 7.599 3.653 1.657 1.911 2.504 4.475 2.101 7.448a9.76 9.76 0 01-4.283 6.833 9.713 9.713 0 01-7.939 1.309 542.066 542.066 0 01-15.983-4.54l1.242 2.948c1.067 2.57 2.052 5.231 2.168 7.949.109 2.553-.64 5.025-1.937 7.14-1.38 2.25-3.38 4.1-5.654 5.214zm120.102-61.445c-1.318 1.8-2.833 3.336-4.342 4.876-3.26 3.325-6.519 6.65-10.01 9.744-1.265 1.122-2.545 2.228-3.824 3.334-.475.41-.95.82-1.424 1.232l-.747.647.639.755c.171.202.333.411.468.633 1.918 3.14 2.983 6.547 4.061 9.964.739 2.342 1.481 4.69 2.478 6.969l.321.714c1.297 2.79 1.646 5.703.957 8.331-.65 2.476-2.224 4.686-4.75 6.295-.635.405-1.719.875-2.453 1.038-2.895.642-5.826.194-8.222-1.166-2.29-1.3-4.086-3.437-4.882-6.24-1.176-4.14-1.931-8.348-1.891-12.448.006-.694.036-1.391.087-2.09a7.127 7.127 0 01-1.58 1.21c-1.854 1.048-3.951 1.151-5.922.616-2.23-.606-4.308-2.023-5.747-3.875-1.267-1.631-2.042-3.607-1.942-5.672.087-1.803.848-3.66 2.475-5.408l1.535-1.564c1.142-1.158 2.714-2.05 4.39-2.5 1.537-.414 3.167-.458 4.629.04 1.972-.539 3.25-1.175 4.437-1.766.846-.421 1.643-.82 2.354-1.129a696.557 696.557 0 0010.35-4.603c2.982-1.356 6.01-2.608 9.039-3.86 3.19-1.32 6.38-2.638 9.516-4.077z"/><path fill="#FFF" d="M1540 163c26.51 0 48-18.804 48-42s-21.49-42-48-42-55.2 18.041-55.2 41.237c0 9.842 7.755 27.041 14.235 34.201 8.791 9.715 25.704 8.562 40.965 8.562zM1654.256 154.962c20.293 0 36.744-17.005 36.744-37.981C1691 96.005 1674.549 79 1654.256 79 1633.962 79 1612 95.315 1612 116.291c0 8.9 5.936 24.454 10.896 30.928 6.73 8.785 19.677 7.743 31.36 7.743z"/><path fill="#000" d="M1539.33 189.09c.21-.193.542-.261.795-.102 4.327 2.736 4.839 11.937 4.888 17.25 1.79.467 3.558.997 5.23 1.367 3.55.785 7.12 1.47 10.684 2.193l2.67.55c8.926 1.882 18.019 3.274 27.115 3.97 8.828.677 17.912.924 26.715-.213a71.299 71.299 0 0011.191-2.394c4.318-1.288 7.757-3.423 11.773-5.293 10.054-4.683 18.48 9.04 8.804 15.062-8.306 5.167-19.638 7.03-29.226 7.83-9.8.817-19.562-.08-29.244-1.63-10.467-1.677-20.719-4.252-30.646-7.986-4.197-1.579-8.26-3.493-12.226-5.585l-1.079-.575c-.659-.354-1.346-.713-2.037-1.077-.743 6.627-2.884 13.028-5.471 19.18l-.061-.107c-1.415 4.854-6.527 7.857-11.613 5.713-5.97-2.515-6.423-9.117-2.95-13.803l.166-.218c4.084-5.254 6.643-11.772 8.867-17.985a146.427 146.427 0 003.113-9.705c.663-2.357.687-4.728 2.542-6.441zm153.832-52.772c-3.538 10.694-11.256 18.929-22.006 22.55-10.654 3.588-22.503 2.28-33.393.34a157.639 157.639 0 01-7.208-1.44c1.973 1.222 3.715 2.942 5.383 4.76 2.465 2.689 4.7 5.522 5.38 8.888.672 3.339-.388 5.88-2.322 7.797-2.975 2.949-7.773 4.538-11.838 5.416-9.101 1.967-18.219 1.66-27.276-.356-2.312-.514-3.88-1.755-4.76-3.372-1.07-1.964-1.157-4.408-.544-6.633.613-2.224 1.938-4.274 3.861-5.409 1.583-.934 3.563-1.19 5.81-.443 4.51 1.5 8.988 2.495 13.752 2.61a52.91 52.91 0 006.06-.198 51.012 51.012 0 003.404-.43 86.626 86.626 0 01-1.943-2.7 83.768 83.768 0 01-2.167-3.279c-2.006-3.213-3.677-6.515-5.144-10.002a84.81 84.81 0 01-1.508-3.85 29.04 29.04 0 01-.385-.328c-2.87-2.484-5.278-5.544-6.98-9.334-4.61-10.266-3.86-23.009-1.063-33.668 2.242-8.544 7.19-16.447 13.727-21.816 1.142-1.878 1.895-3.017 2.819-3.977 3.757-3.908 8.999-6.545 14.115-8.148 11.427-3.583 23.871-1.013 33.557 5.81 8.943 6.299 15.945 15.746 19.728 26.253 3.583 9.95 4.282 20.864.94 30.96zm-155.64-64.987c13.589-.116 27.415 3.896 38.442 11.925 10.55 7.683 18.832 19.026 18.822 32.537-.01 13.155-7.042 26.09-14.841 36.274-8.754 11.434-20.194 16.947-34.578 17.074-7.477.067-15.008-.595-22.431-1.505l-3.983-.502c-5.484-.707-11.026-1.544-16.224-3.429-24.744-8.975-25.51-41.363-16.346-62.066 7.076-15.984 24.985-31.572 42.843-29.7a63.758 63.758 0 018.296-.608zm22.951 15.231c-17.017-7.638-37.693-5.35-54.2 2.8-6.539 7.134-11.318 16.125-13.252 24.38-2.065 8.81-1.763 18.301 1.342 26.841 3.791 10.425 13.126 13.007 23.196 14.61l3.91.613 1.64.249c9.894 1.475 20.712 2.623 30.221.776 10.597-2.06 17.328-10.622 22.625-19.4l.247-.41c5.501-9.198 10.106-20.383 5.492-30.92-3.923-8.958-12.492-15.62-21.221-19.539zm100.44 2.662c-5.84-3.237-12.5-3.825-18.806-1.659-2.714.932-5.058 2.442-7.331 4.135l-.906.686c-2.796 2.146-5.407 3.233-7.504 6.131l-.27.389c-1.058 1.58-2.91 2.212-4.595 2.001-1.965 5.418-2.776 11.276-2.793 17.043l.002.764.01.78c.126 6.816 1.315 15.155 6.679 19.724 4.892 4.166 12.3 5.166 18.913 5.746l5.096.425 1.355.102c6.97.485 14.609.32 20.45-3.806 5.089-3.595 7.489-9.695 8.11-15.718 1.472-14.228-5.73-29.718-18.41-36.743zm-127.118 1.314c9.371-4.784 20.628-3.585 28.566 2.411-.705.138-1.399.314-2.09.661-1.802.903-2.92 2.711-3.346 4.635-.48 2.175.647 4.234 2.794 4.92 1.868.596 4.083.869 5.818-.266a5.115 5.115 0 001.961-2.363l.06-.145.073-.106.027-.05c.007-.02-.026.017-.078.098.053-.123.102-.246.151-.371.073-.149.143-.299.2-.454.101-.087.193-.184.286-.281a25.34 25.34 0 013.293 7.513c4.614 17.895-14.306 36.466-31.209 38.324-6.388.702-12.213-.819-17.047-3.817.044-.059.093-.112.133-.174 1.942.349 4.26-.52 4.965-2.686 1.8-5.525-.046-11.988-6.066-13.793-3.874-1.162-7.838.122-10.607 2.77-2.094-5.125-2.843-10.895-1.852-16.674 1.398-8.153 6.316-15.5 13.97-18.892 3.727-1.653 6.94-2 9.998-1.26zm98.687 11.04l.285-.449c2.896-4.456 8.431-9.922 14.168-8.42a8.514 8.514 0 012.308.993c3.152-.428 6.452.288 9.162 1.955l-.074.187a.827.827 0 00-.03.096c-.247 1.084-.103 2.086.403 3.082.549 1.079 1.332 2.102 2.392 2.72a4.67 4.67 0 002.42.63c1.229-.021 2.311-.562 3.199-1.388.483-.448.82-1.105 1.006-1.781.438.42.863.888 1.268 1.419 6.651 8.746 5.732 22.8-2.071 30.596-.315.314-.65.598-.981.888-3.168 4.36-8.051 7.32-13.916 7.92-5.43.555-10.86-1.051-15.024-4.343.335-.178.648-.41.918-.715.711-.805 1.296-1.6 1.728-2.582.109-.248.213-.497.313-.748l.144-.38c.025-.069.247-.708.188-.596l-.014.026.079-.184c.745-1.86.444-3.987-1.325-5.154l-.195-.121c-.578-.337-1.294-.496-2.019-.498-1.806-2.211-4.494-2.718-7.017-2.072l-.089-.714a8.457 8.457 0 01-.033-.358c-1.955-6.481-1.012-13.846 2.807-20.008zm-86.797-65.25l.65-.1c4.908-.71 8.245.107 11.436 4.302 1.521 1.999 1.052 5.018 0 7.06-3.398 6.602-12.746 5.237-19.042 6.548-6.147 1.279-12.279 3.02-18.03 5.554-5.87 2.586-11.379 5.645-16.75 9.138-4.86 3.16-9.267 7.912-14.818 9.75-.25.084-.55-.14-.536-.405.396-6.313 5.67-12.108 9.753-16.604 4.724-5.2 10.47-9.815 16.452-13.485 6.174-3.786 12.848-6.903 19.758-9.077a81.708 81.708 0 0111.127-2.68zm74.777 8.573c6.18-9.037 21.543-7.304 30.608-4.89 11.366 3.027 23.682 9.148 31.652 18.008 7.139 7.937-3.542 18.249-11.57 11.57l-2.143-1.777-1.371-1.126c-6.163-5.034-12.266-9.59-19.776-12.945-8.806-3.933-17.73-5.85-27.036-7.945-.366-.082-.581-.578-.364-.895z"/><path fill="#FFF" d="M1789.597 167.617c2.319-5.234 8.697-11.915 19.136-20.043 3.168 17.985 3.524 29.75 1.067 35.296-3.038 6.859-13.98 19.237-22.003 15.756-8.023-3.48-3.917-18.103 1.8-31.009zM1984.249 160.513c-1.906-4.423-7.15-10.07-15.73-16.939-2.605 15.2-2.897 25.143-.878 29.83 2.498 5.797 11.492 16.257 18.087 13.316 6.595-2.941 3.22-15.3-1.48-26.207zM1850.954 199.231h87.837l5.255 14.516c-43.697 10.142-73.218 11.948-88.562 5.42l-4.53-19.936z"/><path fill="#000" d="M1902.365 195.518c12.39-.06 30.95-.42 43.33.31 3.57.21 5.33 5.31 5.58 7.73 2.37 22.49-15.59 40.43-35.42 47.38-18.4 6.45-42.7 7.67-59.11-4.38-7.13-5.23-12.53-12.48-16.05-20.55-1.9-4.35-3.29-8.86-4.06-13.54-.59-3.57-1.71-8.38-.4-11.89 1.562-4.158 5.542-4.45 9.371-4.508l.499-.006c.414-.005.825-.009 1.23-.016 5.92-.12 11.84-.272 17.75-.34 12.43-.142 24.86-.142 37.28-.19zm34.46 6.546l-.09.002c-5.57.601-67.07 1.04-76.57 1.25-1.43.031-2.93 0-4.45-.04-1.053 3.258 1.68 9.966 4.62 11.131 1.94.769 13.429 1.528 25.237 1.763l1.074.02 1.611.024 1.072.012c4.816.048 9.522 0 13.486-.181 3.904-.176 10.234-1.206 16.505-2.552l.964-.21c9.468-2.082 18.507-4.824 18.507-6.36 0-2.603-1.106-4.956-2.056-4.857zm-124.481-57.688c1.913-1.012 3.702.298 3.95 2.266.499 3.95-1.587 8.08-1.692 12.15-.113 4.35.36 8.698.214 13.049-.255 7.599-2.525 15.228-6.915 21.486-5.24 7.469-19.061 15.626-25.657 4.814-4.743-7.774-1.015-19.112 2.437-26.613 2.707-5.88 6.644-11.317 11.054-16.04 2.935-3.143 9.104-10.225 13.846-9.513.182.027.264.246.229.404-.032.139-.085.262-.128.394.686-.977 1.549-1.81 2.662-2.397zm-3.611 4.083c-.841 1.003-1.984 1.805-2.952 2.786-2.059 2.086-4.105 4.18-5.951 6.46-3.365 4.158-6.143 8.803-8.346 13.67-2.627 5.803-6.953 15.75-3.868 22.2 1.654 3.458 5.91 2.838 8.78 1.155 5.362-3.143 8.525-9.85 10.027-15.618 1.675-6.434.696-12.963.727-19.512.015-3.345.076-7.76 1.583-11.141zm156.266-14.276c.092-2.473 2.573-3.787 4.726-2.712 2.975 1.486 4.562 4.209 6.134 7.008l.378.672c.252.449.507.897.77 1.34l7.087 11.944c4.168 7.025 9.858 14.522 11.958 22.51 3.104 11.809-7.142 20.475-18.5 17.939-11.85-2.646-16.25-16.428-16-27.193.13-5.635 1.446-11.358 2.556-16.861.653-3.238.878-6.755 1.716-10.002-.556-1.536-.883-3.09-.825-4.645zm-60.185 10.184c-1.978-1.42-.408-6.124 3.82-5.397 38.397 6.597 18.502 72.738-30.522 36.443-5.837-4.708 1.231-15.08 7.522-11.047 6.785 5.203 20.552 16.707 30.114 6.674 8.124-11.38-3.382-22.083-10.934-26.673zm65.939 3.158c-.474 3.162-1.183 6.204-1.512 8.45-1.297 8.84-2.216 20.323 5.092 27.01 3.093 2.832 8.467 3.88 12.06 1.21 5.258-3.906-.261-11.418-2.714-15.43a1574.055 1574.055 0 01-10.738-17.854c-.642-1.082-1.401-2.216-2.188-3.386zm-140.63-45.928c12.554-2.03 26.137 6.24 30.52 18.158 1.106 3.007-.73 6.731-3.364 8.27-3.038 1.773-6.285.913-8.873-1.146-1.449-1.152-2.581-2.596-3.686-4.07l-.661-.886c-1.326-1.77-2.695-3.51-4.605-4.767-3.232-2.128-7.564-2.24-11.28-1.625-5.582.924-10.402 3.56-15.235 6.201l-1.262.689c-2.316 1.257-4.651 2.483-7.09 3.49-1.119.461-1.774-.974-1.398-1.819 4.834-10.864 14.927-20.554 26.933-22.495zm121.718-.491c10.035-.861 21.992 3.486 25.166 13.812.076.248-.185.54-.444.444-6.072-2.251-12.787-3.62-19.278-2.474-4.18.738-12.431 3.697-12.747 8.492-.49 7.394-9.067 9.213-13.246 3.587-4.064-5.472-.567-12.956 3.923-16.911 4.708-4.146 10.416-6.417 16.626-6.95zm-96.238-41.904c2.179 2.476 2.929 7.078 0 9.448-5.152 4.17-10.848 2.553-17.022 2.906a67.731 67.731 0 00-14.88 2.535c-10.751 3.074-19.512 8.684-28.695 14.844-1.205.808-2.435-.734-1.86-1.86 5.3-10.383 15.574-18.913 25.864-24.111 5.492-2.776 11.502-5.078 17.578-6.133l1.877-.33c5.808-1.004 13.03-1.969 17.138 2.7zm81.59-7.023l1.437.294c15.637 3.27 35.953 9.798 43.358 25.158.283 2.172-.016 2.637-.258 2.941l-.08.102c-.2.26-.36.617-1.301.913a36.426 36.426 0 01-.792-.198c-3.394-.89-6.08-2.115-8.68-3.387l-2.819-1.389c-3.27-1.603-6.57-3.148-10.066-4.29-7.462-2.433-15.138-4.148-22.932-5.063-1.69-.198-3.316-.769-4.6-1.746a6.91 6.91 0 01-2.573-3.918c-.55-2.21-.392-3.882.794-5.875a7.443 7.443 0 013.63-3.13c1.493-.607 3.193-.75 4.882-.412z"/><g><path fill="#FFF" d="M2116.832 224.757c5.334-10.666 32.465-13.602 81.391-8.808l6.2 50.858c-23.608 7.589-42.438 10.588-56.49 8.998-21.079-2.385-39.103-35.048-31.101-51.048z"/><path fill="#FF8181" d="M2122.003 251.47c-2.535-5.423 49.931-20.214 66.175-10.106 10.83 6.738 14.551 14.702 11.165 23.892-45.548 10.39-71.328 5.794-77.34-13.785z"/><path fill="#000" d="M2112.28 215.29c12.247-14.23 32.872-15.221 49.957-11.663 10.964 2.284 21.639 6.088 32.775 7.498 5.2.659 10.458.856 15.697.759 5.146-.095 10.3-1.132 15.428-.94.788.03 1.086 1.065.403 1.486-7.035 4.32-16.512 5.707-24.822 6.552.026.615.063 1.215.148 1.724a93.05 93.05 0 01.6 4.07c.378 3.082.8 6.153 1.22 9.228.83 6.051 1.092 12.294 2.551 18.241l.255.989c.338 1.25.415 2.377.302 3.393l.338-.153 1.067-.517.7-.33c2.554-1.185 4.991-2.047 7.994-1.76 2.286.219 4.205 1.778 4.219 4.219.057 10.955-14.707 14.478-23.152 16.575l-2.477.61c-10.75 2.622-21.725 4.92-32.78 5.47-17.742.88-37.68-4.013-49.285-18.404-10.83-13.427-12.814-33.48-1.137-47.047zm80.572 46.028c-1.862-16.494-22.13-17.4-27.961-6.941-2.587-14.58-40.863-1.26-37.87 1.638 11.344 10.986 28.559 11.975 43.358 9.943 7.537-1.035 15.08-2.72 22.473-4.64zm-22.494-43.23l-5.096-.733-2.007-.277c-12.632-1.691-26.839-2.565-37.225 5.534-3.792 2.956-5.926 6.812-6.723 10.954 9.827-1.457 19.691-2.568 29.584-3.493l2.699-.248c6.19-.558 12.377-1.146 18.56-1.763l4.396-.445 4.393-.456c1.546-.162 11.965-.695 13.924-.337.209-1.76.482-5.57.924-7.282-7.402.25-14.772-.299-22.13-1.277l-1.3-.177zm23.456-73.72c7.552 4.59 19.058 15.292 10.934 26.672-9.562 10.033-23.33-1.471-30.114-6.674-6.29-4.032-13.359 6.339-7.522 11.047 49.024 36.295 68.919-29.846 30.522-36.443-4.228-.727-5.798 3.977-3.82 5.397zm13.514 19.336l.363-.197.123-.075c.212-.137.077-.122-.406.045l-.362.13v.256c.093-.057.192-.1.282-.16zm-96.71-40.78l-.002-.225c.014-6.377 3.728-20.937 12.908-20.937 5.735 0 9.217 9.909 9.82 20.124l.02.416c.267 6.35-1.476 20.232-9.84 20.232-8.452 0-12.82-13.147-12.907-19.61zm135.155-2v-.225c-.013-6.377-3.727-20.937-12.907-20.937-5.592 0-9.042 9.42-9.77 19.358l-.05.766c-.362 6.136 1.268 20.648 9.82 20.648 8.452 0 12.82-13.147 12.907-19.61zm-129.918-62.64c7.492-1.138 17.413 1.026 20.906 8.644 1.556 3.394-.287 7.147-4.21 7.335-9.48.454-17.984-1.656-26.306 4.509-3.581 2.653-6.592 6.328-9.12 9.992l-.955 1.395-.792 1.15c-1.716 2.522-3.34 5.262-3.087 8.306.075.9-.846 1.756-1.72 1.72-5.455-.224-6.042-7.062-5.325-11.17 1.334-7.621 5.023-14.776 10.136-20.54 5.37-6.051 12.46-10.121 20.473-11.34zm103.19 9.251c5.165-3.32 11.773-4.597 17.825-4.108 11.933.961 31.952 11.105 29.317 25.68-.813 4.495-7.065 6.867-10.749 4.373-3.96-2.68-4.925-6.848-7.873-10.352-2.352-2.799-5.333-4.824-8.525-6.549-3.146-1.701-6.786-2.732-10.356-3.108l-.595-.057c-2.149-.183-13-.134-11.408 3.917.312.793-.868 1.421-1.41.821-3.327-3.68.441-8.475 3.773-10.617z"/></g><g fill="#000"><path d="M2490.872 230.917c-6.787 2.668-14.806 3.299-21.81 1.025-6.7-2.174-12.782-7.013-16.462-13.098-3.278-5.42-4.647-11.852-2.71-18.264.093-.307.394-.503.684-.58 1.585 1.443 2.564 2.876 3.542 4.302 1.65 2.405 3.303 4.784 5.572 6.84 3.302 2.99 7.75 5.42 12.165 6.22a19.35 19.35 0 0012.617-1.977c2.354-1.258 4.257-2.939 6.141-4.628 2.053-1.839 4.072-3.706 6.899-4.744 2.264-.832 4.643-.13 6.471 1.262 1.964 1.497 3.377 3.839 3.299 6.288-.122 3.794-1.782 6.959-4.192 9.57-3.258 3.53-7.864 6.073-12.216 7.784zm-8.058-94.55c7.552 4.59 19.058 15.293 10.934 26.673-9.562 10.033-23.33-1.471-30.114-6.674-6.29-4.032-13.359 6.339-7.522 11.047 49.024 36.295 68.919-29.846 30.522-36.443-4.228-.727-5.798 3.977-3.82 5.397zm-79.426-63.599c10.292-.492 19.362 4.13 29.17 6.23 9.064 1.942 17.994.776 26.809-1.694 14.306-4.009 20.22 17.891 6.109 22.16-10.276 3.107-21.096 3.323-31.641 1.721-9.367-1.424-17.219-5.984-26.15-8.639-7.665-2.277-16.68-1.33-24.775-.258l-3.142.422c-4.67.63-9.365 1.26-13.989 2.173-4.012.793-8.017 2.244-12.112 2.412-.465.02-.859-.584-.566-.987 4.757-6.53 13.925-11.683 21.218-15.12l.494-.232c9.002-4.197 18.552-7.71 28.575-8.188zm-3.77 48.156l-.002-.225c.014-6.377 3.728-20.937 12.908-20.937 5.735 0 9.217 9.909 9.82 20.124l.02.416c.267 6.35-1.476 20.232-9.84 20.232-8.452 0-12.82-13.147-12.907-19.61zm135.155 0v-.225c-.013-6.377-3.727-20.937-12.907-20.937-5.592 0-9.042 9.42-9.77 19.358l-.05.766c-.362 6.136 1.268 20.648 9.82 20.648 8.452 0 12.82-13.147 12.907-19.61zm-.141-55.922l.656.014c10.728.372 21.763 6.727 24.627 17.402.148.554-.535.927-.94.547-8.82-8.259-20.684-.367-29.517 3.77l-3.244 1.498c-11.388 5.298-24.339 11.526-36.983 7.578-6.005-1.875-9.819-8.045-8.106-14.277 1.524-5.545 8.217-10.205 14.015-8.204l.262.096c4.71 1.802 10.502-.024 15.366-1.823l3.996-1.501c6.426-2.438 12.88-5.166 19.868-5.1z"/></g><g fill="#000"><path d="M2782.735 212.81c.694-.188 1.305.744.73 1.254-2.354 2.09-3.849 5.981-5.567 8.634-1.634 2.524-3.209 5.022-4.646 7.664-1.61 2.961-3.167 5.911-4.42 9.044l-.249.632c.376.894.67 1.776.886 2.354l.062.164c2.142 5.47-2.354 11.55-7.425 13.078-8.674 2.615-16.116-4.508-16.323-12.979-.163-6.664 4.354-12.602 8.944-17.007 4.015-3.853 8.511-7.133 13.54-9.536 2.22-1.059 4.524-1.945 6.933-2.459 2.464-.525 5.122-.19 7.535-.843zm-16.348 24.15c.636.3 1.18 1.033 1.636 1.89-.228-.727-.699-1.449-1.636-1.89zm5.427-92.593c7.552 4.59 19.058 15.293 10.934 26.673-9.562 10.033-23.33-1.471-30.114-6.674-6.29-4.032-13.359 6.339-7.522 11.047 49.024 36.295 68.919-29.846 30.522-36.443-4.228-.727-5.798 3.977-3.82 5.397zm-62.073-44.075l1.334-.112c5.787-.51 11.647-1.287 17.354.022 7.667 1.76 7.105 12.914 0 14.965-6.262 1.807-13.2 1.025-19.665 1.087-1.017.01-2.032.036-3.048.053-.2 2.417-.993 4.501-2.207 6.583-.87 1.494-1.98 2.913-3.072 4.24-2.596 3.154-8.719 3.083-11.339 0-1.938-2.282-3.48-4.907-3.506-7.996a10.77 10.77 0 01.28-2.457l-3.529.062c-8.635.132-17.336.073-25.815-1.299-3.016.624-5.484-4.818-1.32-6.447 11.316-4.426 23.96-5.729 35.968-7.058 6.171-.684 12.376-1.155 18.565-1.643zm96.412-4.573l.308-.031c7.489-.767 15.744-2.095 23.248-1.331 11.204 1.139 11.185 16.285 0 17.418-4.106.416-8.432.214-12.746-.184 2.204 4.678-.412 10.265-5.725 10.979-4.937.663-10.054-4.135-8.434-9.28l.075-.228c.317-.893.6-1.891.938-2.876l-1.787-.15c-5.341-.473-12.754-1.437-14.72-5.654-.592-1.271-.455-2.451.458-3.537 3.743-4.456 12.973-4.603 18.385-5.126zm-79.636-34.678c5.42-1.97 11.053 2.639 11.756 7.832.81 5.984-3.507 9.924-8.978 10.638l-.274.034c-12.076 1.33-24.061 3.761-36.153 5.136a192.375 192.375 0 01-16.554 1.182l-3.95.089c-4.842.122-10.035.233-14.505-1.434l.017-.03a1.664 1.664 0 01-.412-2.992c4.759-3.365 11.174-4.637 16.714-6.236a452.07 452.07 0 0116.807-4.486c11.814-2.921 24.086-5.576 35.532-9.733zm49.986 1.398c1.436-7.57 12.161-8.383 16.1-2.874 2.546.874 6.28 1.786 8.592 2.472 4.03 1.195 8.063 2.383 12.105 3.534 8.37 2.384 16.538 5.406 24.767 8.223.848.291.615 1.367-.2 1.474-11.485 1.495-22.778 2.19-34.333 1.711l-2.37-.106c-10.181-.397-27.466.36-24.66-14.434z"/></g></g></svg>