<svg xmlns="http://www.w3.org/2000/svg" width="1021" height="1201"><g fill="none" fill-rule="evenodd"><path fill="#FFDBB4" d="M996.082 677.472l-42.838 4.204c-68.388 5.225-136.75 16.137-204.614 22.686-1.69-2.75-4.997-2.297-7.005-.386-6.772-.593-14.361-5.769-20.496-.385-.199-.028-.398-.06-.6-.08-10.921-20.963-18.47-43.322-25.798-65.71-4.677-13.766-10.97-27.09-22.597-36.333-19.844-13.775-65.312-41.708-88.613-40.534-.387-4.172-2.332-8.472-5.525-11.25 7.038-11.999-21.103-19.828-23.088-18.437 1.272-40.088-17.585-74.902-59.165-82.885-37.25-7.762-90.233-9.066-110.267 29.863-2.202-.248-24.714-.365-26.892-.121-3.386-4.29-40.576 36.353-25.333 50.502-41.767 18.476-78.012 30.614-109.282 43.442-70.753 29.027-116.036 61.589-142.194 179.116-5.099 15.92-5.47 33.341-10.855 48.906-19.156 44.731-34.694 92.362-38.56 141.034-9.34 2.393-10.414 18.86.404 21.242 4.132.911 7.587 2.155 10.6 4.514-2.355 39.886 7.292 131 13.37 130.72 12.394 39.442 67.675 50.574 106.813 36.713-6.747 12.693 0 20.674 0 27.456 140.827 5.328 294.806 2.26 435.594 9.566 18.01-.256 36.952 4.423 54.715 1.73 10.833-2.597 10.85-19.63-.138-21.736l48.013-10.428c-1.073-.405 19.791-14.283 35.56-40.216 14.678-29.01 4.688-64.028 11.34-95.584 51.944-4.248 104.747-6.064 156.123-14.86 7.005 20.958 37.328-4.108 46.967-14.19l-.036-.048c4.665-1.276 8.406-5.648 8.53-10.824 3.272-4.674 3.959-11.262.822-15.779 14.378-82.968 36.298-167.68 44.221-251.428 2.801-.62 5.439-1.848 7.675-3.74l-.181-.18c3.789-4.225 4.525-11.516-1.791-15.105-5.095-2.898-9.35-1.999-14.88-1.455z"/><path fill="#9FD8E5" d="M453 988l11 7 90 29 55 7 45-7v77l9 72c-4 7.333-42 7.333-114 0-45.898-4.675-213.644-6.943-251.836-7.94L295 1165c-44.88-1.295-89.213-1.295-133 0v-27l125-62 112-63 54-25zm-63.771-516.068l8.266 6.172-18.047 29.65 87.913 71.11v56.8l27.832 26.324 15.91-26.324 22.416-29.812 15.931-48.324-5.424-31.836 10.908-1.028c.053 2.176.044 4.372-.026 6.583 1.985-1.39 30.126 6.438 23.088 18.437 3.193 2.778 5.138 7.078 5.525 11.25 23.301-1.174 68.769 26.76 88.613 40.534 11.628 9.242 17.92 22.567 22.597 36.332l1.101 3.358 1.137 3.447 1.145 3.445c6.329 18.935 13.162 37.7 22.416 55.461.201.02.4.052.6.08 6.134-5.384 13.723-.208 20.495.385 1.961-1.866 5.162-2.342 6.885.2l.12.186-84.371 16.621-55.66 195.244-48.473-39.346-26.018 3.87-68.71 24.78-79.912 20.758-182.43 50.295h-23.232L44.639 943.94l-12.183-4.021c4.023-48.26 19.464-95.48 38.464-139.848 5.385-15.565 5.756-32.986 10.855-48.906 37.718-169.469 115.203-162.276 251.476-222.558-15.243-14.149 21.947-54.791 25.333-50.502l.214-.019.461-.024.595-.021c5.316-.155 23.646-.037 25.622.185a57.946 57.946 0 013.753-6.293z"/><path fill="#FFF" d="M1009.567 683.4l-2.513 14.005c-.597.196-1.205.361-1.82.498a836.64 836.64 0 01-2.766 25.072l-15.58 86.84c-2.688 15.363-5.24 30.759-7.772 46.16l-3.356 16.543-2.078 10.282c-4.487 22.266-8.845 44.46-12.67 66.53a10.913 10.913 0 011.351 2.68l-.294 1.244-.205.83-.21.819c-3.017 11.6-8.268 22.85-20.643 26.263-9.334 2.574-19.576 2.807-29.214 3.823l-1.069.116-168.659 18.967c-20.379 2.292-40.748 4.652-61.116 7.037l-17.657 2.071c-24.61 2.85-49.362 5.093-73.61 10.251a5.43 5.43 0 00-2.23 1.014c4.882-18.483 9.556-36.942 13.792-55.612 4.768-21.013 9.293-42.067 14.393-63.004 10.274-42.18 21.791-84.083 34.4-125.626 2.645-8.719 5.352-17.42 8.118-26.102l1.941-6.069 1.495-4.836c2.311-7.373 5.172-14.951 11.951-19.019 7.934-4.76 18.753-5.549 27.75-7.195l6.094-1.145A1958.409 1958.409 0 01866.7 692.83c45.957-4.72 92.076-7.786 138.25-9.285l4.617-.145zM590.95 972.943l.43.036-6.3 50.361c-1.007-.705-2.286-1.137-3.847-1.133-20.664.061-40.473-6.543-59.633-13.804l-2.918-1.112-8.135-3.127c-8.269-3.168-16.582-6.266-25.05-8.836l-3.423-1.033-1.74-.513c-6.411-1.872-13.156-3.573-19.825-3.997l-.909-.05 1.942-1.019c.284-.149.533-.316.754-.496 3.671.272 7.35.198 11.221-.5 7.282-1.31 14.363-3.844 20.865-7.37l2.904-1.575 1.189-.63.785-.407.781-.395c5.585-2.784 10.924-4.527 17.975-3.045 8.004 1.685 15.019 5.999 22.234 9.644l1.28.638.862.416.877.413.888.406c9.758 4.39 25.286 9.128 29.027-4.138 1.503-5.33.326-10.32-2.282-14.697 4.86-.42 13.543 5.31 20.048 5.963z"/><path fill="#000" d="M388.072 469.184c4.243-10.663 18.586-6.518 16.987 4.684-.957 6.71-4.632 13.797-7.933 19.678-2.688 4.787-5.754 9.459-9.911 13.047a406.574 406.574 0 0022.957 19.872c8.594 6.89 17.63 13.243 26.972 19.08 8.19 5.12 16.752 9.657 24.473 15.499 7.179 5.43 13.719 11.963 17.047 20.49 3.545 9.08 2.004 18.458-.606 27.532l-.3 1.026c-2.667 8.99-7.284 19.827-.882 28.297 3.259 4.312 7.997 7.366 12.088 10.813a93.91 93.91 0 0110.179 9.975c6.825 7.802 12.376 16.58 15.879 26.363l.313.889c3.003 8.659 5.197 19.267 1.14 27.769-1.164 2.437-4.918 1.645-5.57-.728-1.474-5.376-1.397-11.006-2.633-16.458-1.286-5.67-3.426-11.052-6.221-16.144-5.408-9.85-12.732-18.265-21.385-25.38l-2.59-2.106c-6.75-5.54-12.952-11.416-14.322-20.584-1.466-9.81 2.464-19.153 4.99-28.437 1.762-6.47 2.337-12.672.434-18.52-2.325 3.796-5.497 7.398-8.006 10.61-4.997 6.402-10.041 12.764-15.072 19.138-5.158 6.536-10.19 13.175-14.98 19.986a1137.161 1137.161 0 00-6.376 9.18c-1.59 2.306-3.805 4.61-5.537 6.962.42 1.258.389 2.708-.374 3.738-9.185 12.41-22.252-13.484-25.66-20.026-6.94-13.323-12.105-27.477-19.068-40.797-7.215-13.808-15.431-27.248-24.588-39.854-5.54-7.625-11.747-14.787-16.814-22.654-11.937 10.824-27.645 18.08-42.073 24.66-15.853 7.229-32.322 13.134-48.575 19.404l-4.801 1.865c-28.005 10.93-56.694 22.937-79.971 42.35-27.353 22.813-43.535 54.609-55.582 87.535-13.868 37.905-25.341 76.833-36.036 115.736a2094.217 2094.217 0 00-15.548 59.959c-4.302 17.672-7.868 35.52-12.848 53.01 10.1-.357 21.619 3.553 30.242 4.682 39.299 5.144 78.069 13.344 115.172 27.54 4.583 1.755 5.909 6.332 4.91 10.042 2.644-.746 5.285-1.502 7.928-2.244-2.896-4.437-1.514-12.37-1.286-17.287l.014-.338c.234-6.553.945-13.113 1.406-19.654.878-12.469 2.02-24.847 3.54-37.244l.388-3.1c1.722-13.488 2.995-27.055 4.874-40.52l.222-1.541c-.901-3.445-1.95-6.848-3.051-10.236-2.934-9.025-7.075-17.52-10.704-26.261-.428-1.03 1.038-1.62 1.723-1.003 6.146 5.529 11.028 12.543 14.95 19.879.068-.346.128-.693.199-1.04l.447-2.202c1.104-5.372 2.446-11.024 5.742-15.381.35-.463 1.045-.56 1.377 0 3.154 5.337 3.507 12.096 3.992 18.169.549 6.87.618 13.827.52 20.716-.188 13.463-1.137 26.964-1.893 40.405-.742 13.208-2.198 26.249-4.075 39.327l-.357 2.453c-.918 6.225-1.669 12.527-2.88 18.71l-.341 1.683c-.647 3.066-1.045 7.389-2.333 10.98a9176.8 9176.8 0 0199.579-27.148c24.033-6.414 48.09-12.732 72.139-19.09 1.269-2.287 2.849-4.423 4.82-6.332 6.498-6.292 15.108-9.1 23.005-4.256.642.395.696 1.4 0 1.782a146.319 146.319 0 00-4.518 2.559l14.44-3.911c10.793-2.925 21.715-6.58 32.762-8.62 20.347-10.04 42.23-17.308 63.665-24.491l2.526-.854c10.974-3.742 22.326-7.93 33.665-10.005 8.3-1.518 18.045.314 21.383 8.818 4.226 2.785 8.202 6.058 12.039 9.277 2.774 2.326 5.433 4.799 8.137 7.207l.498.438c2.21 1.918 3.962 3.202 4.505 6.255.28 1.577-.722 3.709-2.667 3.5-5.951-.637-10.79-7.535-14.826-11.654-3.118-3.184-6.261-6.476-9.107-9.975-1.66.903-3.933.74-4.99-1.26-5.475-10.368-20.476-3.183-28.776-.724l-11.89 3.52a2775.133 2775.133 0 00-17.82 5.334c-16.303 4.95-32.527 10.492-48.98 15.039 1.473 1.618 1.27 4.496-1.526 5.59-12.878 5.054-27.006 7.667-40.385 11.134a8404.297 8404.297 0 00-25.328 6.612 20.705 20.705 0 00-2.926 8.083c-1.61 11.35 1.495 24.447 4.52 35.425l.457 1.638c2.487 8.826 6.146 19.646 13.76 25.219 1.86 1.359 4.227 2.305 6.613 2.519a49608.132 49608.132 0 0144.728-23.003c2.763-1.42 5.316.502 5.936 2.786 5.259-.863 10.506-2.223 15.285-3.845 8.03-2.727 14.3-7.928 21.828-11.525 14.566-6.958 29.44 1.589 42.482 8.087l3.006 1.477c5.848 2.837 18.016 8.289 20.822.528 2.714-7.508-5.867-15.532-11.41-18.911-6.605-4.03-14.297-6.185-21.763-7.981a136.661 136.661 0 00-12.92-2.474c-4.923-.693-10.01-.59-14.75-2.186-2.356-.792-2.718-4.534 0-5.152 7.298-1.661 16.008.15 23.624 2.002l3.98.98c7.674 1.884 15.42 4.247 22.41 8.003 5.082 2.732 10.446 6.882 13.95 11.962 3.043-2.827 6.83-2.731 10.775-1.683l2.141.595c3.536.98 6.402 1.655 9.843.976.46-2.503.926-5.007 1.425-7.511 4.903-24.614 10.28-49.134 16.213-73.523 10.234-42.068 22.076-83.674 35.426-124.854l1.34-4.116c3.079-9.42 5.557-19.681 10.52-28.334 4.696-8.182 12.218-12.895 21.155-15.391 10.142-2.832 20.799-4.314 31.145-6.227 2.308-.426 4.622-.831 6.932-1.25-1.952-3.525-3.41-7.526-4.722-10.596l-.23-.532c-2.82-6.429-5.353-12.973-7.799-19.553l-1.83-4.946c-4.416-11.91-8.975-23.626-15.184-34.766-6.536-11.724-15.207-21.31-26.016-29.242-22.038-16.176-48.601-24.427-69.976-41.714-.876-.708.247-1.92 1.136-1.471 14.433 7.252 30.014 12.183 45.026 18.087l2.961 1.168c11.866 4.704 23.916 9.825 34.186 17.44 11.45 8.492 20.468 19.038 27.246 31.579 6.68 12.362 10.953 26.199 15.666 39.403l1.26 3.518c1.901 5.276 3.865 10.536 6.115 15.67 1.786 4.076 5.119 8.729 6.634 13.385 4.145-.72 8.289-1.44 12.438-2.133a1993.737 1993.737 0 01271.81-26.4c3.564-.1 5.407 3.3 4.882 6.408-8.74 51.68-16.507 103.539-25.03 155.259a9492.262 9492.262 0 01-11.396 67.674c-1.967 11.422-4.241 22.8-6.104 34.239-1.504 9.238-2.596 18.548-5.178 27.572-2.316 8.09-5.87 15.893-11.707 22.066-6.292 6.654-15.074 9.875-23.914 11.397-22.441 3.862-45.46 5.439-68.082 8.012l-120.447 13.703c1.76 15.999 1.891 31.748 1.084 47.933l-.46 8.836c-.377 7.106-.826 14.223-1.847 21.257-1.28 8.823-5.316 16.294-11.261 22.884-5.46 6.052-12.091 11.216-18.542 16.164-6.696 5.138-13.615 10.097-21.488 13.274l-1.022.406c-6.907 2.696-19.864 6.872-29.304 5.346 1.234 6.183 3.622 12.83 1.505 18.949-.982 2.84-4.697 4.258-6.973 1.84-4.51-4.79-4.861-11.118-5.93-17.368a496.632 496.632 0 01-2.92-19.574c-1.645-12.651-2.926-25.418-3.317-38.176a465.119 465.119 0 01.459-39.31c.363-6.721.813-13.438 1.666-20.116a403.26 403.26 0 011.16-8.54c.156-1.035.328-2.066.513-3.095l-10.811 1.22c-16.577 1.85-33.161 3.521-49.855 3.78-1.977.03-3.498-.87-4.492-2.18-1.06 1.725-2.903 2.959-5.544 2.949-23.313-.087-45.023-7.71-66.227-16.694-10.688-4.53-21.21-9.434-31.914-13.925-9.991-4.192-20.672-7.183-30.422-11.905l-25.62 13.438a11.093 11.093 0 01-.685 1.809c-1.668 3.405-4.957 5.252-8.316 6.643-3.224 1.338-6.563 1.754-9.816 1.416a38252.394 38252.394 0 01-58.313 30.503l-19.452 10.14c-38.756 20.179-77.36 40.689-116.36 60.394l-2.87 1.445c-13.471 6.755-27.936 13.602-42.885 18.71-.266 3.785-.098 7.465.219 11.47l.076.872c.446 4.733 1.402 10.664-2.395 14.033-1.975 1.752-5.503 1.759-6.846-.883-2.437-4.791-.25-12.344.523-17.55.274-1.85.608-3.753 1.102-5.6-17.138 5.103-34.795 7.577-52.235 4.712-16.98-2.787-30.131-13.484-40.733-26.568-11.19-13.807-19.14-29.898-23.406-47.147-4.855-19.628-5.172-39.898-5.058-60.003.12-21.41.913-42.924 3.517-64.19-2.853-.67-6.017-1.25-8.9-1.05-1.428 2.285-4.198 3.247-6.701 2.95-5.443 6.003 8.363 12.138 12.775 13.674 1.532.534 1.368 3.022-.4 2.947l-1.112-.053c-6.818-.363-13.86-1.527-17.87-7.862-3.211-5.078-2.246-11.094 1.583-15.235 2.529-23.912 8.575-47.197 14.202-70.523 5.522-22.895 11.663-45.643 18.172-68.276l2.918-10.13c10.248-35.489 20.96-71.264 35.097-105.342 7.059-17.016 15.19-33.72 26.214-48.556 10.275-13.831 22.406-25.666 36.35-35.774 25.995-18.846 56.497-30.233 86.467-41.082l1.342-.485c15.53-5.618 31.024-11.303 46.378-17.39 13.579-5.383 26.588-12.208 40.103-17.672a69.458 69.458 0 01-1.271-2.418l-.25.21a2.175 2.175 0 01-.132.098c-1.36.942-3.36.479-4.48-.578-3.163-2.984-2.092-6.297.019-9.391l.275-.394c2.582-3.617 4.885-7.441 7.268-11.19l1.492-2.343c4-6.262 8.203-12.565 13.537-17.74a29.092 29.092 0 018.039-5.53c-.245-.517 1.903-1.576 2.512-1.043 9.077-3.322 19.52-2.626 29.416-1.71m356.624 544.95l-12.62 1.436a8689.617 8689.617 0 01-41.665 4.62l-30.172 3.279c-.077 1.72-.286 3.402-.324 4.7-.197 6.698-.344 13.398-.483 20.097a465.159 465.159 0 00.91 40.27c.858 12.987 1.986 25.975 3.74 38.874l.359 2.578.208 1.356c1.43.138 2.837.818 4.006 2.215 2.552 3.047 11.793.085 15.402-1.2 5.935-2.111 11.524-5.68 16.68-9.257 5.037-3.494 9.572-7.568 13.93-11.859l3.565-3.526c3.547-3.525 7.098-7.28 9.27-11.713 2.948-6.012 3.329-13.392 4.193-19.94 1.064-8.054 2.33-16.107 3.67-24.121m-357.024-122.35l-1.31.344c-47.55 12.635-95.03 25.643-142.727 37.72-23.604 5.978-47.32 11.52-70.953 17.384l-3.826.957c-18.644 4.712-37.512 10.383-51.79 23.906-.526.498-1.291-.267-.795-.796 15.387-16.38 37.27-23.314 58.283-29.325 3.884-1.111 7.773-2.196 11.658-3.301-28.576-10.187-57.603-19.05-87.3-25.371-7.647-1.628-15.383-2.823-23.024-4.457-5.33-1.14-10.533-2.789-15.806-4.156l-4.147-1.043-.055 13.108c-.07 18.565-.036 37.115.91 55.677l.18 3.439c1.105 20.657 2.83 41.743 10.16 61.22 5.958 15.829 15.453 30.74 27.87 42.269 6.283 5.833 13.038 10.374 21.388 12.616 7.753 2.08 15.876 2.325 23.846 1.77 38.229-2.667 72.259-23.434 105.467-40.628 54.317-28.123 108.64-56.232 163.012-84.247a26.67 26.67 0 01-4.113-3.464c-7.291-7.53-11.137-17.838-13.663-27.821-2.69-10.626-4.297-22.015-4.484-32.985m70.402 75.126a.71.71 0 011.058.607c.168 4.153-2.127 8.249-3.842 11.99l-.181.399c-2.083 4.634-4.364 9.206-6.723 13.706a677.143 677.143 0 01-14.73 26.655c-10.283 17.641-21.711 34.539-35.22 49.899-3.05 3.47-8.068-.979-6.11-4.715 9.44-18.01 20.445-35.015 31.773-51.872 5.67-8.44 11.338-16.888 17.065-25.29 2.39-3.506 4.809-7 7.294-10.44l1.499-2.057m572.072-348.958c-47.717 1.44-95.378 4.553-142.868 9.43a1958.409 1958.409 0 00-159.31 23.007l-5.468 1.028c-9.118 1.728-20.257 2.44-28.375 7.312-8.56 5.135-10.872 15.867-13.72 24.717a1975.865 1975.865 0 00-9.786 31.309c-12.608 41.543-24.125 83.446-34.4 125.626-5.1 20.937-9.624 41.99-14.392 63.004-4.236 18.67-8.91 37.129-13.793 55.612a5.43 5.43 0 012.23-1.014c24.249-5.159 49-7.401 73.61-10.251l2.382-.278c25.459-2.994 50.918-5.966 76.392-8.83l168.659-18.967c9.947-1.118 20.603-1.27 30.283-3.94 16.458-4.54 20.315-22.939 23.076-37.592l.084-.443c8.325-44.273 14.952-88.931 22.716-133.316M591.405 973.029c-6.548-.432-15.51-6.43-20.478-6 2.608 4.377 3.785 9.368 2.282 14.698-4.183 14.832-23.1 7.158-32.212 2.627-7.471-3.717-14.685-8.265-22.956-10.006-9.37-1.97-15.718 1.756-23.634 6.05-6.502 3.528-13.583 6.06-20.865 7.372-3.872.698-7.55.772-11.221.5-.221.18-.47.347-.754.496l-1.942 1.019c8.78.402 17.725 3.112 25.897 5.593 8.468 2.57 16.78 5.668 25.05 8.836l8.134 3.127c20.066 7.683 40.836 14.98 62.552 14.916 1.56-.004 2.84.428 3.847 1.133m-30.336-96.835c6.47-.791 12.44.057 17.61 4.268 6.233 5.078 10.421 13.5 19.383 14.053 2.613.16 3.22 3.835.623 4.603-6.67 1.975-12.072-1.634-16.617-6.32l-3.056-3.193c-4.491-4.65-8.634-8.246-16.255-7.968-8.162.298-16.338 2.184-24.447 3.143a888.485 888.485 0 01-27.585 2.81c-.428.038-.5-.636-.1-.735l10.321-2.569m33.879-34.538l1.067-.107c9.393-.912 17.984-.948 26.374 4.106l1.609.973c7.564 4.597 15.797 10.013 20.527 17.457.774 1.219-.505 2.652-1.8 2.342-9.091-2.182-15.737-8.852-23.382-13.844-8.58-5.602-17.443-4.678-27.226-3.808-9.472.843-18.94 2-28.318 3.58-8.813 1.482-17.654 3.822-26.556 4.568l.002-.018c-1.017-.002-1.597-1.53-.56-2.047 9.034-4.511 19.497-6.646 29.324-8.707M226.862 644.676c-.011-.743 1.034-1.021 1.399-.378 6.112 10.753 9.307 23.934 12.563 35.78 3.41 12.41 6.163 24.947 8.636 37.575 5.009 25.57 7.678 50.995 7.859 77.057.025 3.72-6.037 4.71-6.63.898-3.937-25.351-7.71-50.728-11.676-76.072-1.996-12.747-4.32-25.445-6.542-38.154m54.9-17.977c-.45-1.483 1.708-1.979 2.26-.623 12.266 30.109 16.42 64.231 8.545 95.996-1.205 4.859-8.322 2.754-7.413-2.044m154.825-120.083c-.062-1.11 1.379-1.285 1.922-.52 5.812 8.188 8.223 19.155 18.42 23.387 5.09 2.113 10.82 1.745 15.318 5.314 3.007 2.387 5.313 6.155 3.056 9.77-.728 1.168-2.766 1.753-3.754.484-1.442-1.849-2.205-4.063-4.164-5.449-2.763-1.955-6.49-2.076-9.657-2.995-4.098-1.188-7.71-3.267-10.668-6.356m86.625-160.219c.6-.305 1.174-.11 1.557.408.547.738.48 1.456-.19 1.962.895 1.83 1.952 6.411 2.103 7.078a322.766 322.766 0 001.944 8.078c1.374 5.417 2.578 10.876 3.953 16.295 1.458 5.744 3.195 11.427 5.128 17.028.125.363.262.733.406 1.109l.22.567.054-.086c.393-.62 1.211-.187 1.114.47-.09.597-.21 1.192-.313 1.79l.203.536c1.264 3.403 2.13 6.987-.19 9.99-.868 1.123-1.823 1.788-3.013 1.986-1.908 6.29-4.302 12.463-6.865 18.391l-.751 1.732c-3.77 8.65-7.791 17.186-13.794 24.55-6.554 8.04-15.569 13.53-21.278 22.34-2.656 4.098-4.504 8.407-6.004 13.035l-.564 1.757c-1.065 3.273-2.293 6.446-5.364 8.366-.98.612-2.448.417-3.238-.418-6.297-6.66.295-19.099 4.092-25.548 5.278-8.968 12.917-14.705 20.566-21.47 8.245-7.294 13.504-17.05 18.591-26.66 3.116-5.889 6.124-11.904 9.291-17.818-3.309-2.924-4.368-8.733-5.489-12.77l-.102-.363c-1.853-6.466-3.325-13.1-4.255-19.763-.895-6.406-1.268-12.72-1.031-19.163l.068-1.641m15.453 18.724c-.73-1.002.48-2.137 1.482-1.928 6.099 1.261 12.06 4.952 17.534 7.937l.584.317c4.37 2.356 8.765 5.242 11.06 9.82 2.494 4.974 2.289 10.703 1.949 16.11l-.033.505c-.417 6.483-.484 13.22-1.856 19.585-.702 3.258-3.653 4.176-6.176 3.406-3.002 9.48-11.435 16.463-17.595 23.943-7.854 9.536-6.376 22.411-5.555 33.896.332 4.65-5.452 5.972-8.43 3.491l-6.866-5.702a917.992 917.992 0 01-3.424-2.863c-.975-.82-1.941-1.647-2.9-2.485l-1.432-1.264c-.635-.568-3.436-3.697-4.255-3.827-1.983-.315-6.696 4.913-8.31 6.553l-.204.204c-3.036 2.977-5.779 6.18-8.334 9.577-.47.624-1.389.106-1.053-.615 2.29-4.904 4.952-9.593 8.113-13.981l.638-.874c2.103-2.834 4.926-7.838 8.638-8.675 4.533-1.021 9.059 3.524 12.357 6.047l.208.158a322.373 322.373 0 014.668 3.581c-.162-8.55.918-17.19 5.333-24.56 3.113-5.197 7.777-9.046 11.768-13.512 4.443-4.973 6.763-11.085 10.785-16.264.518-.666 1.232-1.025 2.005-1.139.155-4.163.768-8.368 1.242-12.487l.137-1.233c.48-4.475 1.611-9.94-.58-14.132-2.07-3.958-6.818-6.753-10.334-9.438l-2.872-2.228m-206.206-55.241a22.351 22.351 0 00-5.11 4.034c-4.9 5.199-8.404 11.669-11.814 17.893-1.836 3.352-3.606 6.74-5.457 10.085a225.699 225.699 0 01-2.47 4.33c-.387.663-1.537 1.979-2.107 2.79a86.018 86.018 0 001.956 2.625c.255.33 17.836 19.482 23.964 26.977 9.384 11.48 17.772 23.608 24.943 36.588 7.022 12.71 12.368 26.169 18.873 39.126 3.256 6.487 6.892 12.928 11.527 18.542.179.219.368.426.55.642 1.77-4.779 6.302-9.896 8.529-12.834l.208-.277c5.049-6.806 10.38-13.407 15.829-19.896a534.461 534.461 0 0115.304-17.424l1.966-2.134c3.64-3.933 8.266-9.818 13.596-12.628a25.53 25.53 0 00-1.992-3.02c-4.994-6.525-12.054-11.26-19.02-15.534l-4.517-2.748c-17.028-10.377-33.79-21.234-48.573-34.717-7.821-7.134-15.534-14.607-22.108-22.928l-2.325-2.942m16.66-21.687c-7.974.669-16.585.51-23.954 3.108 6.55 6.193 12.778 12.88 19.175 19.177.569-4.26 1.733-8.466 2.719-12.62"/><g><path fill="#FFDBB4" d="M640.529 304.003c-2.153-18.915.633-58.451.82-60.853 1.18-15.185-5.935-75.148-19.385-69.623-22.562-17.861-52.613-21.805-80.713-23.69-58.367-3.913-120.46 5.072-165.53 44.352-22.289 20.399-43.988 50.068-42.244 80.96-20.25 29.282-48.8 69.449-23.568 103.682 8.576 10.937 22.208 15.01 32.982 23.293 21.672 17.48 35.268 42.566 57.146 59.942 57.96 52.083 156.377 62.963 213.323 3.723 44.035-42.904 36.915-107.09 29.169-161.786-5.207-36.773 2.2 36.901-2 0z"/><path fill="#000" d="M463.28 69.625c15.61-3.15 31.639-5.11 47.58-4.52l1.229.048c11.994.48 27.184 1.54 37.647 8.514.602-.604 1.57-.914 2.448-.495 12.434 5.935 26.11 10.226 39.202 14.49 13.032 4.243 26.552 7.044 40.211 8.173 5.139.425 9.537 5.974 6.283 10.951a219.086 219.086 0 00-2.279 3.585c1.256-.13 2.512-.266 3.768-.393 4.133-.416 8.262 3.995 8.017 8.02a74.223 74.223 0 01-.83 7.502c1.574-.033 3.139.203 4.651.842 7.656 3.233 7.123 12.352 6.55 19.29-.794 9.628-4.395 19.826-11.081 27.032 4.992 5.185 8.526 11.377 10.634 18.731 1.529 5.37 2.38 11.09 1.96 16.68l-.134 1.674c-.52 6.066-1.552 12.782-5.916 17.146-2.24 2.25-5 3.07-7.631 2.81 1.591 13.98 2.611 28.04 3.571 42.05l.45 6.696c2.142 32.38 3.751 64.97 3.33 97.404-.391 30.31-6.38 59.73-24.97 84.34-16.931 22.41-41.24 38.93-68.74 45.21-14.82 3.39-29.95 3.63-44.95 1.47-7.271-1.05-14.59-2.66-21.491-5.2-7.639-2.82-13.129-6.97-18.269-13.19-2.431-2.95-1.261-9.23 3.58-8.64 7.321.888 14.005 1.958 21.024 4.123l1.005.317c6.991 2.24 14.231 3.91 21.54 4.62 14.971 1.45 30.17-.01 44.511-4.55 23.35-7.4 43.46-23.89 56.35-44.61 15.3-24.56 17.03-52.44 16.809-80.68-.237-30.988-1.245-61.995-2.89-92.951l-.28-5.159c-.87-15.93-1.71-31.87-2.449-47.81-.23-5-.58-10.04-1.211-15.03-5.769-3.38-10.939-8.04-14.309-13.79-6.77 2.8-13.89 4.82-20.441 6.43-15.174 3.732-30.928 4.638-46.373 2.301a137.059 137.059 0 01-12.729 4.536 284.927 284.927 0 01-3.497 1.523c-10.401 4.45-20.951 8.22-31.93 10.98l-2.697.673c-5.778 1.424-12.054 2.827-18.203 3.267-1.01.39-2.1.72-3.291 1.01a53.78 53.78 0 01-17.149 1.31c-5.591-.47-9.631-6.12-6.551-11.41 2.25-3.86 4.521-7.71 6.811-11.55-7.97 3.32-16.2 6.08-24.5 8.42-8.38 2.36-16.88 4.35-25.391 6.18-4.55.97-9.119 1.83-13.659 2.8-3.25.69-8.24 1.05-10.891 3.19-2.929 2.35-3.759 7.83-4.87 11.21-1.46 4.39-2.83 8.8-4.08 13.26a274.297 274.297 0 00-6.109 27.05c-1.58 9.13-2.641 18.35-3.231 27.6-.589 9.24-.33 18.54-1.279 27.74-.511 4.88-5.75 7.39-9.62 3.98-.454-.4-.912-.804-1.365-1.213l-.675-.617c-3.311-3-6.521-6.18-9.17-9.76-.48-.66-.94-1.35-1.37-2.05-.07 0-.13-.02-.2-.07l-.735-.553c-8.087-6.02-21.599-13.868-29.485-3.867-2.513 3.186-3.8 7.243-4.867 11.156l-1.874 7.005c-1.212 4.572-2.353 9.17-3.02 13.85-1.51 10.48-.75 22.56 6.461 30.96 2.88 3.36 6.85 5.76 11.279 6.39 2.471.34 4.911-.08 7.361-.39 2.49-.31 4.889.19 7.38-.05 3.96-.39 5.69 4.35 4.21 7.33-.8 1.6-1.741 2.98-2.81 4.15.859.74 1.68 1.54 2.47 2.38 2.34.75 4.439 2.36 6.01 4.49 1.27 1.72 1.929 3.59 2.04 5.56.139.49.259.99.37 1.5l2.145 3.481c.472.764.942 1.518 1.414 2.258 5.46 8.6 11.521 15.88 19.051 22.74 7.25 6.6 15.119 12.51 21.93 19.59l.802.84c6.35 6.692 13.043 14.791 10.558 24.52-.64 2.5-4.131 4.3-6.41 2.61-7.33-5.44-11.021-14.06-17.24-20.66-6.401-6.8-13.491-12.91-19.91-19.69-6.071-6.4-10.861-13.65-14.47-21.63-1.441 1.59-3.54 2.72-6.45 3.16-5 .75-9.661-2.18-11.84-6.51-1.401.62-2.83 1.18-4.271 1.62-7.58 2.32-12.349-6.11-9.489-12.34 1.529-3.34 3.439-6.24 5.81-8.68-7.411-1.02-14.951-4.85-19.821-9.63-12.219-12.01-13.899-30.06-11.149-46.11 1.46-8.51 3.979-17.12 7.25-25.11.569-1.39 1.18-2.79 1.849-4.17-.37-.01-.75-.17-.99-.48-2.21-3.02-4.899-5.49-6.54-8.87-1.51-3.1-3.189-6.24-4.38-9.47-2.449-6.61-3.649-14.07-4.449-21.06-1.65-14.31-1.011-28.53 1.18-42.75 3.729-24.22 12.737-47.398 26.008-67.736a11.561 11.561 0 01-2.06-1.38l-.319-.278-.518-.468c-3.787-3.427-3.46-9.85 0-13.32l1.093-1.096c1.384-1.375 2.577-2.464 4.812-3.96.33-.222.667-.43 1.008-.624-1.17-2.162-1.576-4.69-.761-7.479 2.84-9.716 16.82-9.372 25.681-5.135 9.803-8.749 20.673-16.344 32.455-22.494 28.061-14.64 59.79-24.85 90.771-31.09zm-145.05 255.9c5.24-1.71 12.2 1.88 16.91 4.04 5.97 2.74 11.05 6.79 15.97 11.07 2.45 2.14 2.89 5.64 2.28 8.63-.06.3-.12.61-.19.92-.65 3.19-4.21 5.7-7.36 5.61-6.59-.18-9.73-5.87-13.46-10.69-.44.78-.99 1.5-1.67 2.04l-.46.36c-1.549 1.179-3.255 2.121-5.3 2.03a9.853 9.853 0 01-4.12-1.11c-3.2-1.69-4.61-5.83-3.74-9.2.54-2.12 1.78-3.78 3.4-4.93l-.605-.413c-1.292-.9-2.47-1.847-3.388-3.246l-.208-.33h.08c-1-1.72-.349-4.06 1.861-4.78z"/></g></g></svg>